<svg width="25" height="25" viewBox="0 0 25 25" fill="none" xmlns="http://www.w3.org/2000/svg">
<path d="M12.5 25C5.60465 25 0 19.3953 0 12.5C0 5.60465 5.60465 0 12.5 0C19.3953 0 25 5.60465 25 12.5C25 19.3953 19.3953 25 12.5 25ZM12.5 1.74419C6.56977 1.74419 1.74419 6.56977 1.74419 12.5C1.74419 18.4302 6.56977 23.2558 12.5 23.2558C18.4302 23.2558 23.2558 18.4302 23.2558 12.5C23.2558 6.56977 18.4302 1.74419 12.5 1.74419Z" fill="#292D32"/>
<path d="M9.20853 16.663C8.9876 16.663 8.76668 16.5816 8.59226 16.4072C8.25505 16.07 8.25505 15.5118 8.59226 15.1746L15.1737 8.59324C15.5109 8.25603 16.069 8.25603 16.4062 8.59324C16.7434 8.93045 16.7434 9.48859 16.4062 9.8258L9.82481 16.4072C9.66202 16.5816 9.42946 16.663 9.20853 16.663Z" fill="#292D32"/>
<path d="M15.79 16.663C15.569 16.663 15.3481 16.5816 15.1737 16.4072L8.59226 9.8258C8.25505 9.48859 8.25505 8.93045 8.59226 8.59324C8.92946 8.25603 9.4876 8.25603 9.82481 8.59324L16.4062 15.1746C16.7434 15.5118 16.7434 16.07 16.4062 16.4072C16.2318 16.5816 16.0109 16.663 15.79 16.663Z" fill="#292D32"/>
</svg>
