<svg width="56" height="56" viewBox="0 0 56 56" fill="none" xmlns="http://www.w3.org/2000/svg">
<g clip-path="url(#clip0_62_398)">
<path d="M39.6741 24.7312V24.4977C39.6741 17.9603 34.5375 12.8237 28.0001 12.8237C22.1631 12.8237 17.2601 17.0264 16.5596 22.8633C12.357 24.2642 9.32178 27.9999 9.32178 32.6695C9.32178 38.5064 13.9914 43.176 19.8283 43.176C23.7975 43.176 33.6036 43.176 37.3393 43.176C42.4758 43.176 46.6784 38.9734 46.6784 33.8369C46.6784 29.4008 43.6432 25.8986 39.6741 24.7312Z" fill="black" fill-opacity="0.34"/>
<path d="M30.3346 31.5023V38.5066H25.665V31.5023H18.6606L27.9998 22.1631L37.339 31.5023H30.3346Z" fill="white"/>
</g>
<defs>
<clipPath id="clip0_62_398">
<rect width="37.3567" height="30.3523" fill="white" transform="translate(9.32178 12.8237)"/>
</clipPath>
</defs>
</svg>
