<svg width="500" height="500" viewBox="0 0 500 500" fill="none" xmlns="http://www.w3.org/2000/svg">
<circle cx="250" cy="250" r="250" fill="white"/>
<path d="M451.572 261.714C453.074 267.604 455.037 273.341 456.808 279.155C463.777 301.718 470.746 324.28 477.754 346.804C478.177 348.152 477.715 348.421 476.56 348.691C470.862 349.923 465.202 351.232 459.503 352.503C458.926 352.618 458.387 352.772 457.886 353.08C456.038 354.235 453.844 354.312 451.803 354.774C443.987 356.507 436.171 358.316 428.355 360.01C427.469 360.203 426.661 360.627 425.775 360.819C424.158 360.935 422.618 361.435 421.039 361.666C419.23 361.897 418.729 361.474 418.614 359.664C418.344 355.506 418.19 351.386 417.844 347.228C417.651 344.686 417.69 344.686 415.187 344.648C405.061 344.378 394.973 345.226 384.886 345.072C384.424 345.072 384 345.072 383.538 345.072C381.42 343.493 381.266 341.221 381.382 338.911C381.459 337.063 381.882 335.215 382.19 333.405C385.656 311.459 389.044 289.474 392.471 267.527C392.586 266.911 392.74 266.257 392.779 265.641C392.933 264.139 393.741 263.485 395.204 263.523C396.359 263.562 397.476 263.215 398.631 263.177C400.864 263.1 401.326 263.369 401.942 265.487C403.097 269.607 404.137 273.803 405.176 277.962C408.95 292.785 412.915 307.609 416.573 322.471C416.689 322.894 416.804 323.356 416.843 323.78C416.843 324.203 416.92 324.627 416.997 325.05C416.804 323.78 416.804 322.509 416.419 321.277C415.957 313.884 415.572 306.453 415.072 299.061C414.571 291.746 414.186 284.392 413.686 277.076C413.339 271.801 413.069 266.488 412.761 261.174C412.453 255.9 412.184 250.586 411.76 245.311C411.645 243.771 411.606 242.231 411.683 240.73C411.414 238.651 411.337 236.533 411.298 234.415C411.298 232.721 410.99 232.529 409.335 232.991C405.022 234.184 400.826 235.763 396.552 237.11C394.049 237.919 393.703 237.765 392.509 235.378C392.086 234.531 391.662 233.684 391.2 232.798C388.89 227.716 385.964 222.941 383.577 217.859C383.23 217.128 382.768 216.435 382.653 215.587C382.845 214.124 384.116 213.97 385.155 213.547C389.313 211.93 393.549 210.428 397.745 208.888C399.247 208.349 399.363 207.771 398.67 206.424C396.821 202.92 395.358 199.224 393.472 195.72C393.125 195.104 392.856 194.45 392.971 193.718C394.203 191.562 394.165 189.406 393.356 187.096C391.393 181.513 389.506 175.853 387.581 170.232C386.195 166.15 383.307 164.687 379.187 165.881C377.724 163.84 376.8 161.568 375.838 159.258C375.53 158.527 375.144 157.795 374.875 157.025C374.759 156.756 374.721 156.409 374.528 156.178C373.681 155.216 373.758 153.906 373.296 152.828C372.449 150.98 375.144 151.827 375.029 150.557C375.337 150.287 375.607 149.979 376.069 149.941C379.534 149.325 382.729 147.862 385.964 146.552C386.349 146.475 386.811 146.822 387.119 146.321C391.662 144.666 396.09 142.587 401.095 142.702C401.48 142.664 401.865 142.818 402.25 142.818C403.713 143.511 405.369 143.395 406.909 143.742C413.57 145.166 418.421 149.286 422.657 154.291C427.007 159.412 427.007 159.374 433.745 159.374C433.553 160.452 432.629 160.067 431.974 160.221C431.127 160.413 430.165 159.836 429.356 160.567C430.473 161.915 431.782 163.07 433.014 164.302C433.245 164.533 433.514 164.918 433.938 164.495C433.976 162.03 434.169 159.605 434.169 157.179C434.169 131.806 434.169 106.471 434.207 81.0982C434.207 80.2126 433.745 79.1345 434.823 78.48C435.824 79.2885 435.555 80.4821 435.555 81.5217C435.593 91.7634 435.555 102.044 435.555 112.285C435.555 129.265 435.593 146.244 435.516 163.263C435.516 165.419 436.055 167.036 437.711 168.46C440.137 170.54 442.639 172.58 444.95 174.775C446.49 176.238 448.415 175.93 450.186 176.276C451.225 176.854 450.763 177.162 449.955 177.393C449.185 177.624 448.299 177.046 447.645 177.817C451.148 181.628 454.306 185.671 456.808 190.214C458.541 193.41 459.696 196.721 459.619 200.379C459.773 200.649 459.965 200.88 460.004 201.188C460.12 207.463 457.501 212.546 452.92 216.666C449.916 219.361 446.182 220.747 442.37 221.863C439.752 222.633 439.752 222.71 440.637 225.329C441.369 227.369 441.792 229.525 442.601 231.528C442.716 231.797 442.793 232.105 442.87 232.375C445.566 241.192 448.299 250.009 451.033 258.787C451.264 259.827 451.187 260.828 451.572 261.714Z" fill="#6DB5DE"/>
<path d="M263.41 68.2384C274.537 77.9026 285.665 87.6052 296.792 97.2693C298.217 98.5399 299.718 99.772 301.143 101.004C301.836 101.004 302.067 101.466 302.259 102.044C313.348 111.284 313.078 126.377 301.759 135.233C295.714 139.969 288.937 143.049 281.66 145.282C275.461 147.169 269.34 149.402 263.41 152.097C263.141 152.366 262.91 152.675 262.525 152.867C259.983 154.022 257.442 155.177 254.863 156.294C253.554 156.679 252.206 156.563 250.858 156.563C209.468 156.563 168.078 156.563 126.688 156.563C123.145 156.563 119.642 156.563 116.292 157.834C115.368 157.911 114.713 157.41 114.213 156.717C111.864 153.599 110.362 150.133 110.17 146.206C110.131 144.82 110.17 143.472 110.17 142.086C110.285 139.006 111.21 136.157 112.788 133.539C121.528 118.831 130.191 104.084 138.893 89.3763C139.124 88.9913 139.393 88.6448 139.586 88.2212C140.279 86.8351 141.28 86.4116 142.743 87.1047C143.706 87.5667 144.745 87.9132 145.785 88.2982C151.637 90.7624 157.605 92.9571 163.419 95.4982C164.613 96.1143 164.382 96.9998 163.804 97.8854C163.496 98.3474 163.227 98.8094 162.996 99.31C162.187 101.12 161.109 102.775 160.223 104.546C159.8 105.316 159.453 106.125 159.068 106.933C154.101 115.828 149.327 124.799 144.399 133.693C144.168 134.155 143.937 134.617 143.706 135.079C143.359 135.81 143.629 136.157 144.399 136.157C145.554 136.195 146.709 136.234 147.864 136.157C156.104 135.425 164.343 135.926 172.621 135.81C178.05 135.733 183.517 135.733 188.946 135.81C193.412 135.887 197.879 135.156 202.345 135.425C207.273 135.541 212.125 134.501 217.015 134.078C219.286 134.001 221.404 133.346 223.56 132.653C232.839 129.611 241.964 126.262 251.243 123.297C251.705 123.182 252.167 122.989 252.629 122.835C255.825 121.564 259.136 120.563 262.409 119.447C262.756 119.331 263.102 119.216 263.449 119.1C267.106 117.984 270.649 116.559 274.306 115.366C275.654 114.942 275.5 114.518 274.614 113.633C271.072 110.091 267.222 106.818 263.641 103.276C263.333 102.852 262.91 102.544 262.486 102.275C259.213 99.31 256.018 96.2683 252.783 93.2651C252.321 92.726 251.705 92.3795 251.205 91.879C249.126 89.6458 246.623 87.8747 244.544 85.6416C242.811 83.7549 242.773 83.7549 244.582 82.0608C245.121 81.5218 245.66 80.9828 246.315 80.5977C247.124 80.0587 248.048 80.4052 248.933 80.2897C250.204 80.1357 250.473 79.5967 249.742 78.5186C248.587 76.8245 247.355 75.2074 246.161 73.5518C245.699 72.8972 245.006 72.0887 245.969 71.3956C246.893 70.7411 247.509 71.5496 248.048 72.1657C249.357 73.7443 250.473 75.4769 251.667 77.1325C252.321 78.0181 252.86 78.2491 253.823 77.5175C254.747 76.8245 255.094 76.2084 254.285 75.2074C253.014 73.5903 251.821 71.9347 250.666 70.279C250.204 69.586 249.626 68.7774 250.512 68.0844C251.436 67.3914 252.052 68.2384 252.552 68.8545C253.823 70.4331 254.901 72.2042 256.21 73.7828C257.25 75.0149 257.789 74.8994 258.559 73.4748C259.213 72.2812 258.79 70.9336 259.29 69.7785C260.214 68.816 260.984 67.5839 262.486 67.3914C263.064 67.3914 263.141 67.8919 263.41 68.2384Z" fill="black"/>
<path d="M115.638 157.564C118.641 156.063 121.875 155.947 125.186 155.947C167.616 155.986 210.046 155.986 252.514 155.986C253.477 155.986 254.439 156.101 255.325 155.639C257.75 155.408 260.138 155.293 262.563 155.524C262.91 155.562 263.218 155.755 263.526 155.986C268.955 155.986 274.422 156.024 279.851 156.024C288.206 156.024 292.711 160.49 292.711 168.807C292.711 210.274 292.711 251.741 292.711 293.209C292.711 301.371 288.167 305.876 279.966 305.914C265.913 305.914 251.898 305.914 237.845 305.914C237.152 305.914 236.459 305.991 235.727 306.03C235.149 306.646 234.379 306.685 233.609 306.685C224.215 306.685 214.859 306.762 205.464 306.646C201.498 306.685 197.532 306.723 193.567 306.646C193.336 306.646 193.066 306.646 192.835 306.646C182.517 306.762 172.198 307.07 161.918 306.608C148.557 305.991 135.197 306.531 121.837 306.222C116.331 306.916 109.901 301.872 109.785 293.863C109.708 289.089 109.747 284.276 109.785 279.502C109.785 279.155 109.785 278.77 109.747 278.424C109.67 245.697 109.631 212.931 109.747 180.204C109.747 179.819 109.747 179.472 109.747 179.087C109.708 176.007 109.67 172.888 109.785 169.808C110.055 168.537 110.209 167.267 110.17 165.958C110.748 162.262 112.095 159.181 115.638 157.564Z" fill="#202B6D"/>
<path d="M124.424 166.2L124.384 166.219L123.344 163.945C120.17 165.398 118.962 168.163 118.445 171.482L124.424 166.2ZM124.424 166.2L124.464 166.181M124.424 166.2L124.464 166.181M124.464 166.181C126.57 165.125 128.92 164.993 131.898 164.993C169.912 165.028 207.927 165.028 245.974 165.028H245.984C246.036 165.028 246.117 165.03 246.216 165.031C246.53 165.037 247.033 165.047 247.422 165.023C247.913 164.993 248.508 164.91 249.136 164.669C250.97 164.505 252.698 164.437 254.409 164.572L255.016 165.028M124.464 166.181L255.016 165.028M255.016 165.028H255.851M255.016 165.028H255.851M255.851 165.028C258.277 165.028 260.714 165.037 263.155 165.045L263.158 165.045C265.597 165.054 268.041 165.063 270.478 165.063C273.792 165.063 275.948 165.945 277.282 167.273C278.615 168.599 279.5 170.742 279.5 174.041V174.259V174.477V174.695V174.914V175.132V175.35V175.568V175.786V176.004V176.223V176.441V176.659V176.877V177.095V177.314V177.532V177.75V177.968V178.186V178.404V178.623V178.841V179.059V179.277V179.495V179.713V179.932V180.15V180.368V180.586V180.804V181.023V181.241V181.459V181.677V181.895V182.113V182.332V182.55V182.768V182.986V183.204V183.422V183.641V183.859V184.077V184.295V184.513V184.732V184.95V185.168V185.386V185.604V185.822V186.041V186.259V186.477V186.695V186.913V187.131V187.35V187.568V187.786V188.004V188.222V188.441V188.659V188.877V189.095V189.313V189.531V189.75V189.968V190.186V190.404V190.622V190.84V191.059V191.277V191.495V191.713V191.931V192.15V192.368V192.586V192.804V193.022V193.24V193.459V193.677V193.895V194.113V194.331V194.549V194.768V194.986V195.204V195.422V195.64V195.859V196.077V196.295V196.513V196.731V196.949V197.168V197.386V197.604V197.822V198.04V198.258V198.477V198.695V198.913V199.131V199.349V199.568V199.786V200.004V200.222V200.44V200.658V200.877V201.095V201.313V201.531V201.749V201.967V202.186V202.404V202.622V202.84V203.058V203.277V203.495V203.713V203.931V204.149V204.367V204.586V204.804V205.022V205.24V205.458V205.676V205.895V206.113V206.331V206.549V206.767V206.986V207.204V207.422V207.64V207.858V208.076V208.295V208.513V208.731V208.949V209.167V209.385V209.604V209.822V210.04V210.258V210.476V210.695V210.913V211.131V211.349V211.567V211.785V212.004V212.222V212.44V212.658V212.876V213.094V213.313V213.531V213.749V213.967V214.185V214.404V214.622V214.84V215.058V215.276V215.494V215.713V215.931V216.149V216.367V216.585V216.803V217.022V217.24V217.458V217.676V217.894V218.113V218.331V218.549V218.767V218.985V219.203V219.422V219.64V219.858V220.076V220.294V220.512V220.731V220.949V221.167V221.385V221.603V221.822V222.04V222.258V222.476V222.694V222.912V223.131V223.349V223.567V223.785V224.003V224.221V224.44V224.658V224.876V225.094V225.312V225.531V225.749V225.967V226.185V226.403V226.621V226.84V227.058V227.276V227.494V227.712V227.93V228.149V228.367V228.585V228.803V229.021V229.24V229.458V229.676V229.894V230.112V230.33V230.549V230.767V230.985V231.203V231.421V231.639V231.858V232.076V232.294V232.512V232.73V232.949V233.167V233.385V233.603V233.821V234.039V234.258V234.476V234.694V234.912V235.13V235.348V235.567V235.785V236.003V236.221V236.439V236.658V236.876V237.094V237.312V237.53V237.748V237.967V238.185V238.403V238.621V238.839V239.057V239.276V239.494V239.712V239.93V240.148V240.367V240.585V240.803V241.021V241.239V241.457V241.676V241.894V242.112V242.33V242.548V242.766V242.985V243.203V243.421V243.639V243.857V244.076V244.294V244.512V244.73V244.948V245.166V245.385V245.603V245.821V246.039V246.257V246.475V246.694V246.912V247.13V247.348V247.566V247.785V248.003V248.221V248.439V248.657V248.875V249.094V249.312V249.53V249.748V249.966V250.184V250.403V250.621V250.839V251.057V251.275V251.494V251.712V251.93V252.148V252.366V252.584V252.803V253.021V253.239V253.457V253.675V253.893V254.112V254.33V254.548V254.766V254.984V255.203V255.421V255.639V255.857V256.075V256.293V256.512V256.73V256.948V257.166V257.384V257.602V257.821V258.039V258.257V258.475V258.693V258.912V259.13V259.348V259.566V259.784V260.002V260.221V260.439V260.657V260.875V261.093V261.311V261.53V261.748V261.966V262.184V262.402V262.621V262.839V263.057V263.275V263.493V263.711V263.93V264.148V264.366V264.584V264.802V265.02V265.239V265.457V265.675V265.893V266.111V266.33V266.548V266.766V266.984V267.202V267.42V267.639V267.857V268.075V268.293V268.511V268.729V268.948V269.166V269.384V269.602V269.82V270.039V270.257V270.475V270.693V270.911V271.129V271.348V271.566V271.784V272.002V272.22V272.438V272.657V272.875V273.093V273.311V273.529V273.748V273.966V274.184V274.402V274.62V274.838V275.057V275.275V275.493V275.711V275.929V276.147V276.366V276.584V276.802V277.02V277.238V277.457V277.675V277.893V278.111V278.329V278.547V278.766V278.984V279.202V279.42V279.638V279.856V280.075V280.293V280.511V280.729V280.947V281.166V281.384V281.602V281.82V282.038V282.256V282.475V282.693V282.911V283.129V283.347V283.565V283.784V284.002V284.22V284.438V284.656V284.875V285.093V285.311V285.529V285.747C279.5 288.959 278.616 291.085 277.28 292.418C275.943 293.752 273.802 294.64 270.576 294.656H270.507H270.434H270.36H270.286H270.212H270.138H270.065H269.991H269.917H269.843H269.77H269.696H269.622H269.548H269.475H269.401H269.327H269.253H269.179H269.106H269.032H268.958H268.884H268.811H268.737H268.663H268.589H268.516H268.442H268.368H268.294H268.221H268.147H268.073H267.999H267.926H267.852H267.778H267.704H267.631H267.557H267.483H267.409H267.336H267.262H267.188H267.114H267.041H266.967H266.893H266.819H266.746H266.672H266.598H266.524H266.451H266.377H266.303H266.229H266.156H266.082H266.008H265.934H265.861H265.787H265.713H265.64H265.566H265.492H265.418H265.345H265.271H265.197H265.123H265.05H264.976H264.902H264.828H264.755H264.681H264.607H264.534H264.46H264.386H264.312H264.239H264.165H264.091H264.017H263.944H263.87H263.796H263.723H263.649H263.575H263.501H263.428H263.354H263.28H263.207H263.133H263.059H262.985H262.912H262.838H262.764H262.691H262.617H262.543H262.469H262.396H262.322H262.248H262.175H262.101H262.027H261.953H261.88H261.806H261.732H261.659H261.585H261.511H261.438H261.364H261.29H261.216H261.143H261.069H260.995H260.922H260.848H260.774H260.7H260.627H260.553H260.479H260.406H260.332H260.258H260.185H260.111H260.037H259.963H259.89H259.816H259.742H259.669H259.595H259.521H259.448H259.374H259.3H259.227H259.153H259.079H259.005H258.932H258.858H258.784H258.711H258.637H258.563H258.49H258.416H258.342H258.269H258.195H258.121H258.047H257.974H257.9H257.826H257.753H257.679H257.605H257.532H257.458H257.384H257.311H257.237H257.163H257.089H257.016H256.942H256.868H256.795H256.721H256.647H256.574H256.5H256.426H256.353H256.279H256.205H256.132H256.058H255.984H255.911H255.837H255.763H255.689H255.616H255.542H255.468H255.395H255.321H255.247H255.174H255.1H255.026H254.953H254.879H254.805H254.732H254.658H254.584H254.511H254.437H254.363H254.29H254.216H254.142H254.068H253.995H253.921H253.847H253.774H253.7H253.626H253.553H253.479H253.405H253.332H253.258H253.184H253.111H253.037H252.963H252.89H252.816H252.742H252.669H252.595H252.521H252.448H252.374H252.3H252.226H252.153H252.079H252.005H251.932H251.858H251.784H251.711H251.637H251.563H251.49H251.416H251.342H251.269H251.195H251.121H251.048H250.974H250.9H250.827H250.753H250.679H250.606H250.532H250.458H250.384H250.311H250.237H250.163H250.09H250.016H249.942H249.869H249.795H249.721H249.648H249.574H249.5H249.427H249.353H249.279H249.206H249.132H249.058H248.985H248.911H248.837H248.764H248.69H248.616H248.542H248.469H248.395H248.321H248.248H248.174H248.1H248.027H247.953H247.879H247.806H247.732H247.658H247.585H247.511H247.437H247.364H247.29H247.216H247.143H247.069H246.995H246.921H246.848H246.774H246.7H246.627H246.553H246.479H246.406H246.332H246.258H246.185H246.111H246.037H245.964H245.89H245.816H245.742H245.669H245.595H245.521H245.448H245.374H245.3H245.227H245.153H245.079H245.006H244.932H244.858H244.784H244.711H244.637H244.563H244.49H244.416H244.342H244.269H244.195H244.121H244.048H243.974H243.9H243.826H243.753H243.679H243.605H243.532H243.458H243.384H243.311H243.237H243.163H243.089H243.016H242.942H242.868H242.795H242.721H242.647H242.574H242.5H242.426H242.352H242.279H242.205H242.131H242.058H241.984H241.91H241.837H241.763H241.689H241.615H241.542H241.468H241.394H241.321H241.247H241.173H241.099H241.026H240.952H240.878H240.805H240.731H240.657H240.583H240.51H240.436H240.362H240.289H240.215H240.141H240.067H239.994H239.92H239.846H239.773H239.699H239.625H239.551H239.478H239.404H239.33H239.256H239.183H239.109H239.035H238.962H238.888H238.814H238.74H238.667H238.593H238.519H238.446H238.372H238.298H238.224H238.151H238.077H238.003H237.929H237.856H237.782H237.708H237.634H237.561H237.487H237.413H237.34H237.266H237.192H237.118H237.045H236.971H236.897H236.823H236.75H236.676H236.602H236.528H236.455H236.381H236.307H236.233H236.16H236.086H236.012H235.938H235.865H235.791H235.717H235.643H235.57H235.496H235.422H235.348H235.275H235.201H235.127H235.053H234.98H234.906H234.832H234.758H234.685H234.611H234.537H234.463H234.389H234.316H234.242H234.168H234.094H234.021H233.947H233.873H233.799H233.726H233.652H233.578H233.504H233.431H233.357H233.283H233.209H233.135H233.062H232.988H232.914H232.84C232.349 294.656 231.758 294.698 231.297 294.731C231.108 294.745 230.941 294.757 230.811 294.764L229.805 294.817M255.851 165.028L229.805 294.817M229.805 294.817L229.312 295.344M229.805 294.817L229.312 295.344M229.312 295.344C229.244 295.347 229.159 295.348 229.046 295.348C226.626 295.348 224.215 295.354 221.809 295.359C215.815 295.373 209.85 295.387 203.858 295.313L203.831 295.313L203.803 295.313C200.244 295.348 196.727 295.382 193.216 295.314L193.192 295.313H193.168H193.166H193.165H193.164H193.163H193.161H193.16H193.159H193.158H193.157H193.155H193.154H193.153H193.152H193.15H193.149H193.148H193.147H193.146H193.144H193.143H193.142H193.141H193.139H193.138H193.137H193.136H193.135H193.133H193.132H193.131H193.13H193.128H193.127H193.126H193.125H193.123H193.122H193.121H193.12H193.118H193.117H193.116H193.115H193.113H193.112H193.111H193.11H193.108H193.107H193.106H193.105H193.103H193.102H193.101H193.1H193.098H193.097H193.096H193.095H193.093H193.092H193.091H193.09H193.088H193.087H193.086H193.085H193.083H193.082H193.081H193.08H193.078H193.077H193.076H193.075H193.073H193.072H193.071H193.07H193.068H193.067H193.066H193.064H193.063H193.062H193.061H193.059H193.058H193.057H193.056H193.054H193.053H193.052H193.05H193.049H193.048H193.047H193.045H193.044H193.043H193.042H193.04H193.039H193.038H193.036H193.035H193.034H193.033H193.031H193.03H193.029H193.027H193.026H193.025H193.024H193.022H193.021H193.02H193.018H193.017H193.016H193.015H193.013H193.012H193.011H193.009H193.008H193.007H193.006H193.004H193.003H193.002H193H192.999H192.998H192.997H192.995H192.994H192.993H192.991H192.99H192.989H192.988H192.986H192.985H192.984H192.982H192.981H192.98H192.978H192.977H192.976H192.975H192.973H192.972H192.971H192.969H192.968H192.967H192.965H192.964H192.963H192.962H192.96H192.959H192.958H192.956H192.955H192.954H192.952H192.951H192.95H192.949H192.947H192.946H192.945H192.943H192.942H192.941H192.939H192.938H192.937H192.936H192.934H192.933H192.932H192.93H192.929H192.928H192.926H192.925H192.924H192.922H192.921H192.92H192.919H192.917H192.916H192.915H192.913H192.912H192.911H192.909H192.908H192.907H192.905H192.904H192.903H192.902H192.9H192.899H192.898H192.896H192.895H192.894H192.892H192.891H192.89H192.888H192.887H192.886H192.884H192.883H192.882H192.881H192.879H192.878H192.877H192.875H192.874H192.873H192.871H192.87H192.869H192.867H192.866H192.865H192.863H192.862H192.861H192.86H192.858H192.857H192.856H192.854H192.853H192.852H192.85H192.849H192.848H192.846H192.845H192.844H192.842H192.841H192.84H192.839H192.837H192.836H192.835H192.833H192.832H192.831H192.829H192.828H192.827H192.825H192.824H192.823H192.821H192.82H192.819H192.817H192.816H192.815H192.814H192.812H192.811H192.81H192.808H192.807H192.806H192.804H192.803H192.802H192.8H192.799H192.798H192.796H192.795H192.794H192.793H192.791H192.79H192.789H192.787H192.786H192.785H192.783H192.782H192.781H192.779H192.778H192.777H192.776H192.774H192.773H192.772H192.77H192.769H192.768H192.766H192.765H192.764H192.762H192.761H192.76H192.758H192.757H192.756H192.755H192.753H192.752H192.751H192.749H192.748H192.747H192.745H192.744H192.743H192.742H192.74H192.739H192.738H192.736H192.735H192.734H192.732H192.731H192.73H192.728H192.727H192.726H192.725H192.723H192.722H192.721H192.719H192.718H192.717H192.715H192.714H192.713H192.712H192.71H192.709H192.708H192.706H192.705H192.704H192.702H192.701H192.7H192.699H192.697H192.696H192.695H192.693H192.692H192.691H192.69H192.688H192.687H192.686H192.684H192.683H192.682H192.68H192.679H192.678H192.677H192.675H192.674H192.673H192.671H192.67H192.669H192.668H192.666H192.665H192.664H192.662H192.661H192.66H192.659H192.657H192.656H192.655H192.653H192.652H192.651H192.65H192.648H192.647H192.646H192.644H192.643H192.642H192.641H192.639H192.638H192.637H192.636H192.634H192.633H192.632H192.63H192.629H192.628H192.627H192.625H192.624H192.623H192.622H192.62H192.619H192.618H192.616H192.615H192.614H192.613H192.611H192.61H192.609H192.608H192.606H192.605H192.604H192.603H192.601H192.6H192.599H192.598H192.596H192.595H192.594H192.592H192.591H192.59H192.589H192.587H192.586H192.585H192.584H192.582H192.581H192.58H192.579H192.577H192.576H192.575H192.574H192.572H192.571H192.57H192.569H192.567H192.566H192.565H192.564H192.562H192.561H192.56H192.559H192.558H192.556H192.555H192.554H192.553H192.551H192.55H192.549H192.548H192.546H192.545H192.544H192.543H192.541H192.54H192.539H192.538H192.537H192.535H192.534H192.533H192.532H192.53H192.529H192.528H192.527H192.526H192.524H192.523H192.522H192.521H192.519H192.518H192.517H192.516H192.515H192.513H192.512H192.498L192.484 295.313C190.612 295.334 188.748 295.362 186.889 295.39C179.503 295.5 172.208 295.609 164.923 295.281C158.872 295.002 152.835 294.985 146.847 295.002C145.921 295.005 144.997 295.008 144.075 295.012C139.01 295.031 133.983 295.05 128.955 294.934L128.769 294.929L128.585 294.953C125.33 295.363 120.685 292.209 120.6 286.299L120.599 286.295C120.531 282.043 120.565 277.751 120.6 273.459L120.6 273.449V273.439L120.6 273.399C120.6 273.144 120.6 272.749 120.565 272.347C120.496 243 120.462 213.624 120.565 184.283H120.565V184.275V184.273V184.271V184.268V184.266V184.264V184.262V184.26V184.258V184.256V184.254V184.252V184.25V184.248V184.246V184.244V184.242V184.24V184.238V184.236V184.234V184.232V184.23V184.228V184.226V184.224V184.222V184.22V184.218V184.216V184.214V184.212V184.21V184.208V184.206V184.204V184.202V184.2V184.198V184.196V184.194V184.192V184.19V184.188V184.186V184.184V184.182V184.18V184.178V184.176V184.174V184.172V184.17V184.168V184.166V184.164V184.162V184.16V184.158V184.156V184.154V184.152V184.15V184.148V184.146V184.144V184.142V184.14V184.138V184.136V184.135V184.133V184.131V184.129V184.127V184.125V184.123V184.121V184.119V184.117V184.115V184.113V184.111V184.109V184.107V184.105V184.103V184.101V184.099V184.097V184.095V184.093V184.091V184.089V184.087V184.085V184.083V184.081V184.079V184.077V184.075V184.073V184.071V184.07V184.068V184.066V184.064V184.062V184.06V184.058V184.056V184.054V184.052V184.05V184.048V184.046V184.044V184.042V184.04V184.038V184.036V184.034V184.032V184.03V184.028V184.027V184.025V184.023V184.021V184.019V184.017V184.015V184.013V184.011V184.009V184.007V184.005V184.003V184.001V183.999V183.997V183.995V183.993V183.991V183.99V183.988V183.986V183.984V183.982V183.98V183.978V183.976V183.974V183.972V183.97V183.968V183.966V183.964V183.962V183.96V183.958V183.957V183.955V183.953V183.951V183.949V183.947V183.945V183.943V183.941V183.939V183.937V183.935V183.933V183.931V183.929V183.927V183.926V183.924V183.922V183.92V183.918V183.916V183.914V183.912V183.91V183.908V183.906V183.904V183.902V183.9V183.898V183.897V183.895V183.893V183.891V183.889V183.887V183.885V183.883V183.881V183.879V183.877V183.875V183.873V183.871V183.87V183.868V183.866V183.864V183.862V183.86V183.858V183.856V183.854V183.852V183.85V183.848V183.846V183.844V183.843V183.841V183.839V183.837V183.835V183.833V183.831V183.829V183.827V183.825V183.823V183.821V183.819V183.818V183.816V183.814V183.812V183.81V183.808V183.806V183.804V183.802V183.8V183.798V183.796V183.794V183.792V183.791V183.789V183.787V183.785V183.783V183.781V183.779V183.777V183.775V183.773V183.771V183.769V183.767V183.766V183.764V183.762V183.76V183.758V183.756V183.754V183.752V183.75V183.748V183.746V183.744V183.742V183.741V183.739V183.737V183.735V183.733V183.731V183.729V183.727V183.725V183.723V183.721V183.719V183.717V183.715V183.714V183.712V183.71V183.708V183.706V183.704V183.702V183.7V183.698V183.696V183.694V183.692V183.69V183.689V183.687V183.685V183.683V183.681V183.679V183.677V183.675V183.673V183.671V183.669V183.667V183.665V183.663V183.662V183.66V183.658V183.656V183.654V183.652V183.65V183.648V183.646V183.644V183.642V183.64V183.638V183.636V183.634V183.633V183.631V183.629V183.627V183.625V183.623V183.621V183.619V183.617V183.615V183.613V183.611V183.609V183.607V183.605V183.604V183.602V183.6V183.598V183.596V183.594V183.592V183.59V183.588V183.586V183.584V183.582V183.58V183.578V183.576V183.574V183.573V183.571V183.569V183.567V183.565V183.563V183.561V183.559V183.557V183.555V183.553V183.551V183.549V183.547V183.545V183.543V183.541V183.539V183.538V183.536V183.534V183.532V183.53V183.528V183.526V183.524V183.522V183.52V183.518V183.516V183.514V183.512V183.51V183.508V183.506V183.504V183.502V183.5V183.498V183.497V183.495V183.493V183.491V183.489V183.487V183.485V183.483V183.481V183.479V183.477V183.475V183.473V183.471V183.469V183.467V183.465V183.463V183.461V183.459V183.457V183.455V183.453V183.451V183.449V183.447V183.446V183.444V183.442V183.44V183.438V183.436V183.434V183.432V183.43V183.428V183.426V183.424V183.422V183.42V183.418V183.416V183.414V183.412V183.41V183.408V183.406V183.404V183.402V183.4V183.398V183.396V183.394V183.392V183.39V183.388V183.386V183.384V183.382V183.38V183.378V183.376V183.374V183.372V183.37V183.368V183.366V183.364V183.362V183.36V183.358V183.356V183.354V183.352V183.35V183.348V183.346V183.344V183.342V183.34V183.338V183.336V183.334V183.332V183.33V183.328V183.326V183.324V183.322V183.32V183.318V183.316V183.314V183.312V183.31V183.308V183.306V183.304V183.302V183.3V183.298V183.296V183.294V183.292V183.29V183.288V183.286V183.284V183.282V183.28V183.278V183.276V183.274V183.272V183.256L120.565 183.241L229.312 295.344Z" fill="white" stroke="black" stroke-width="5"/>
<path d="M416.612 324.011C411.606 304.567 406.562 285.162 401.596 265.718C401.172 263.985 400.479 263.562 398.785 263.677C393.703 264.024 393.626 263.947 392.856 268.991C389.968 287.549 387.119 306.145 384.231 324.742C383.538 329.247 382.883 333.713 382.036 338.18C381.574 340.644 382.421 342.684 383.422 344.764C384.115 345.149 384.269 345.88 384.5 346.496C389.583 359.818 394.588 373.178 399.632 386.5C399.747 386.962 399.94 387.424 400.132 387.848C401.596 391.814 403.136 395.741 404.56 399.745C404.714 400.207 404.868 400.669 405.061 401.093C407.178 406.291 409.104 411.565 411.029 416.84C411.298 417.61 411.914 418.534 410.682 419.112C409.951 419.343 409.181 419.343 408.411 419.343C399.016 419.343 389.621 419.343 380.227 419.343C379.226 419.343 378.148 419.535 377.339 418.688C376.222 415.3 375.029 411.989 373.604 408.755C373.181 408.485 372.95 408.062 372.757 407.638C371.872 405.367 371.063 403.056 370.139 400.785C370.024 400.515 369.947 400.246 369.87 399.976C368.406 396.01 366.866 392.045 365.442 388.079C365.326 387.578 365.172 387.116 364.941 386.654C361.746 378.761 358.935 370.714 355.893 362.744C354.122 358.085 352.389 353.388 350.618 348.729C348.963 344.379 348.462 340.028 349.232 335.369C353.467 310.496 357.472 285.585 361.669 260.674C361.784 259.981 361.784 259.249 361.977 258.595C362.208 257.979 362.67 257.517 363.247 257.209C368.753 254.437 374.028 251.241 379.649 248.661C380.034 248.469 380.496 248.353 380.92 248.238C390.468 245.812 399.863 243.001 409.373 240.499C410.259 240.268 411.144 239.729 412.145 240.229C412.453 244.811 412.8 249.431 413.069 254.013C414.34 275.189 415.61 296.327 416.881 317.504C416.958 318.928 416.997 320.314 417.035 321.739C416.997 322.471 417.69 323.395 416.612 324.011Z" fill="#8F3600"/>
<path d="M205.271 305.915C215.436 305.915 225.562 305.915 235.727 305.915C235.688 317.311 235.688 328.708 235.573 340.143C235.38 358.278 235.149 376.413 234.841 394.509C234.687 402.517 234.264 410.526 233.917 418.496C233.917 418.958 233.917 419.382 234.302 419.69C233.724 420.498 232.839 420.421 232.03 420.421C222.174 420.46 212.317 420.46 202.46 420.421C201.767 420.421 201.036 420.421 200.42 420.036C199.38 418.92 199.688 417.495 199.804 416.224C200.112 412.567 200.304 408.87 200.612 405.213C200.766 404.674 200.92 404.135 200.843 403.557C201.036 394.047 201.921 384.575 202.152 375.065C202.229 372.062 202.345 369.059 202.46 366.094C202.46 365.748 202.46 365.362 202.499 365.016C203.153 360.511 202.884 355.929 203.038 351.425C203.269 345.418 203.5 339.412 203.616 333.405C203.808 325.358 204.232 317.311 204.386 309.226C204.424 308.071 204.54 306.877 205.271 305.915Z" fill="url(#paint0_linear_49_370)"/>
<path d="M377.339 418.65C388.582 418.688 399.863 418.688 411.106 418.727C411.799 419.15 411.837 419.882 412.03 420.536C413.108 424.079 413.917 427.659 414.802 431.279C415.11 432.588 415.572 432.819 416.727 432.087C420.424 429.816 424.12 427.582 427.854 425.388C428.432 425.118 429.048 424.849 429.549 424.425C432.475 422.654 435.439 420.883 438.404 419.112C439.367 418.534 440.329 418.111 441.446 418.111C451.688 417.995 461.929 418.072 472.171 418.072C473.018 418.072 473.826 418.149 474.558 418.688C476.021 422.154 476.599 425.888 477.6 429.508C479.063 434.821 480.295 440.173 481.758 445.448C482.182 447.026 481.758 447.219 480.333 447.18C472.594 447.103 464.817 447.142 457.078 447.142C419.653 447.142 382.229 447.142 344.805 447.142C342.533 447.142 342.533 447.142 342.918 444.832C343.765 440.173 345.998 436.592 350.233 434.205C358.665 429.392 367.02 424.425 375.414 419.535C376.069 419.189 376.723 418.958 377.339 418.65Z" fill="black"/>
<path d="M200.344 419.766C211.047 419.766 221.713 419.766 232.416 419.766C233.071 419.766 233.687 419.728 234.303 419.689C240.887 423.501 247.471 427.274 254.055 431.086C256.711 432.626 259.368 434.166 261.986 435.745C266.299 438.363 268.108 442.406 268.609 447.219C268.686 447.873 268.493 448.181 267.8 448.181C267.338 448.181 266.915 448.181 266.453 448.181C249.588 448.181 232.724 448.143 215.86 448.181C204.001 448.181 192.143 448.297 180.284 448.335C179.899 448.682 179.398 448.797 178.898 448.836C172.352 448.874 165.845 448.951 159.3 448.797C158.915 448.759 158.607 448.566 158.26 448.374C149.405 448.335 140.511 448.335 131.655 448.297C130.962 448.297 130.269 448.297 129.383 448.297C130.577 443.484 131.693 438.787 132.849 434.128C132.695 433.82 132.618 433.512 132.656 433.204C133.503 429.508 134.466 425.811 135.39 422.115C135.621 421.268 135.775 420.344 136.699 419.882C137.7 419.535 138.739 419.612 139.741 419.612C148.789 419.843 157.837 419.227 166.923 419.227C167.963 419.227 168.964 419.189 169.965 419.497C174.47 421.653 178.744 424.271 183.056 426.735C187.984 429.585 192.836 432.626 197.764 435.437C201.422 437.516 203.539 440.596 204.348 444.639C204.425 445.063 204.386 445.525 204.925 445.948C204.733 441.867 202.962 438.71 199.92 436.322C198.611 435.283 198.341 434.32 198.495 432.742C198.803 429.315 199.304 425.888 199.458 422.423C199.497 421.461 199.574 420.498 200.344 419.766Z" fill="black"/>
<path d="M33.0495 447.912C32.9725 441.328 32.3949 434.744 33.2805 428.199C34.5511 418.689 40.904 412.259 50.3371 410.103C50.5681 410.064 50.7991 409.91 51.0686 409.833C51.3382 409.602 51.6077 409.448 51.9542 409.371C54.5724 408.947 57.1905 408.755 59.8087 408.986C60.5788 409.178 61.3103 409.679 62.1574 409.101C63.6975 408.793 65.2761 409.024 66.8162 408.87C67.6247 408.832 68.3563 409.679 69.2419 409.063C73.6697 408.755 78.0974 408.793 82.4482 409.563C92.6514 411.335 101.507 420.96 100.39 433.281C100.352 433.628 100.159 433.897 100.005 434.167C99.9668 438.748 99.8899 443.33 99.8514 447.912C96.8097 448.374 93.7294 447.951 90.6877 448.143C83.2953 448.605 75.8643 448.721 68.4718 448.451C57.0365 447.989 45.6013 448.259 34.166 448.143C33.781 448.105 33.396 448.182 33.0495 447.912Z" fill="#202B6D"/>
<path d="M474.597 418.688C463.392 418.688 452.15 418.688 440.945 418.688C439.675 417.11 439.752 415.069 439.174 413.259C439.097 412.874 438.943 412.489 438.828 412.066C436.749 404.096 434.67 396.164 432.667 388.156C432.59 387.655 432.398 387.155 432.282 386.654C430.165 378.723 428.124 370.753 426.122 362.783C425.929 362.013 425.583 361.204 425.968 360.357C428.124 359.163 430.588 359.048 432.937 358.509C440.907 356.661 448.877 354.928 456.847 353.119C457.232 353.042 457.579 352.888 457.964 353.08C463.508 374.949 469.052 396.819 474.597 418.688Z" fill="#8F3600"/>
<path d="M61.8493 409.486C61.3488 410.526 60.8482 409.794 60.3477 409.486C58.8461 407.946 58.6536 405.829 57.922 403.98C56.767 400.9 55.6504 397.781 54.6108 394.663C54.4568 394.201 54.3413 393.739 54.1488 393.277C53.3017 391.044 52.5317 388.81 51.8001 386.539C51.4921 385.538 51.0301 384.614 50.6835 383.613C48.6814 377.837 46.4868 372.139 44.5616 366.325C44.4461 365.94 44.4461 365.555 44.4846 365.17C43.4066 360.896 41.7124 356.815 40.2493 352.695C29.4301 322.201 18.5339 291.707 7.71464 261.175C7.32961 260.135 6.82908 259.442 5.90501 258.864C0.707162 255.63 -0.447902 250.432 2.86332 245.196C26.1189 208.234 49.3744 171.271 72.63 134.309C75.4792 129.804 79.522 127.879 83.7573 129.496C89.0321 131.537 92.5744 134.655 92.2663 140.2C92.1508 142.048 91.4193 143.665 90.4183 145.166C90.0332 145.744 89.5712 146.244 90.3797 146.976C93.0749 149.325 95.7316 151.712 98.4268 154.099C99.0813 154.176 99.4663 154.715 99.9284 155.1C103.124 158.026 106.435 160.837 109.554 163.84C110.324 164.533 110.594 165.226 109.747 166.035C109.053 166.381 108.514 165.996 108.052 165.573C105.165 162.993 102.277 160.413 99.4278 157.795C98.9658 157.333 98.5423 156.871 98.0417 156.486C95.5391 154.369 93.1134 152.212 90.7647 149.941C89.2631 148.516 88.9551 148.555 87.877 150.249C76.0952 169.038 64.275 187.789 52.4547 206.539C42.136 222.98 31.7788 239.421 21.4216 255.823C20.459 257.363 19.4194 258.826 17.9563 259.904C16.9938 260.597 16.9553 261.406 17.3018 262.407C21.6526 274.304 25.8109 286.317 30.0846 298.252C33.8579 308.802 37.5927 319.39 41.3659 329.94C44.5616 338.95 47.7573 347.921 50.9531 356.93C51.0686 357.277 51.1841 357.662 51.2611 358.047C51.5306 358.971 51.9541 359.818 52.2622 360.704C56.1124 371.484 59.9627 382.303 63.8129 393.084C63.9284 393.546 64.0439 394.047 64.2365 394.47C65.8151 398.629 67.3167 402.825 68.7413 407.022C69.0108 407.792 69.4728 408.562 68.9338 409.371C68.1252 410.795 67.8557 409.486 67.4322 409.063C66.7391 408.793 66.5851 408.139 66.3541 407.561C64.814 403.287 63.1969 399.052 61.8108 394.74C61.6183 394.085 61.4258 393.431 61.1178 392.815C57.9605 384.113 54.8418 375.373 51.8001 366.633C51.5306 365.709 51.1841 364.785 50.7605 363.938C43.1755 342.53 35.5905 321.161 27.967 299.793C23.7702 287.972 19.5734 276.114 15.3382 264.293C14.5681 262.176 14.8761 261.367 11.9499 261.791C11.4494 261.868 10.9489 261.637 10.1018 261.752C11.0644 264.062 11.7189 266.372 12.5275 268.644C16.4547 279.502 20.2665 290.398 24.1553 301.256C30.0847 317.85 35.9756 334.483 41.8665 351.078C43.5221 355.737 45.2162 360.357 46.8333 365.016C46.9873 365.478 47.1028 365.94 47.2953 366.402C48.6429 370.137 49.9135 373.871 51.2611 377.606C51.5691 378.607 51.8771 379.608 52.3007 380.571C53.7637 384.691 55.3424 388.772 56.6514 392.93C56.7669 393.508 57.0365 394.008 57.2675 394.547C58.9231 398.86 60.3477 403.287 61.9648 407.638C62.0803 408.254 62.3113 408.87 61.8493 409.486Z" fill="black"/>
<path d="M324.283 204.884C324.976 203.036 324.09 201.265 323.821 199.532C322.473 190.946 320.971 182.398 319.508 173.851C319.046 171.194 319.008 171.233 321.472 170.424C321.78 170.347 322.088 170.193 322.357 170.116C322.704 169.731 323.128 169.423 323.628 169.269C327.863 168.075 332.099 166.843 336.372 165.765C336.68 165.688 336.988 165.688 337.335 165.765C338.182 166.227 338.259 167.113 338.49 167.883C339.761 172.58 341.07 177.277 342.302 181.975C342.494 182.668 342.61 183.361 343.072 183.938C342.841 182.244 342.456 180.589 341.955 178.933C340.839 175.044 339.915 171.156 338.798 167.267C338.606 166.574 338.413 165.919 338.529 165.188C339.222 163.686 340.107 162.454 342.032 162.724C343.303 164.341 343.649 166.304 344.265 168.152C346.922 175.814 349.694 183.399 352.351 191.061C352.621 191.831 352.967 192.601 353.006 193.449C352.89 194.527 352.004 194.873 351.234 195.297C346.037 198.184 340.723 200.918 335.448 203.69C334.255 204.306 333.061 204.922 331.906 205.654C329.75 207.04 329.249 208.657 330.443 210.89C332.599 214.971 334.755 219.053 336.911 223.134C341.031 230.834 345.113 238.496 349.155 246.235C349.81 247.468 350.618 248.661 351.196 249.932C351.465 250.548 352.158 251.279 351.234 251.972C347.731 252.55 344.265 252.28 340.954 250.933C340.223 250.509 339.337 250.394 338.798 249.662C338.76 249.316 338.567 249.085 338.298 248.931C333.1 245.581 330.636 240.614 329.712 234.646C328.21 225.213 326.554 215.818 324.976 206.385C324.745 205.923 324.129 205.577 324.283 204.884Z" fill="#6DB5DE"/>
<path d="M393.087 193.68C395.32 198.185 397.515 202.728 399.825 207.194C400.403 208.311 399.979 208.58 399.055 208.927C394.127 210.736 389.237 212.546 384.347 214.394C383.769 214.625 382.807 214.587 383.115 215.665C382.73 216.281 382.191 216.396 381.536 216.242C380.92 216.05 380.651 215.511 380.381 215.01C376.107 206.886 371.795 198.762 367.444 190.677C367.098 189.984 366.828 189.29 366.559 188.559C366.212 187.596 365.904 186.595 365.404 185.71C364.48 183.977 363.055 182.899 361.053 183.284C359.397 183.592 358.781 182.899 358.281 181.474C355.97 174.968 353.891 168.345 351.543 161.877C350.773 159.798 351.081 159.143 353.16 158.411C353.814 158.18 354.469 157.949 355.162 157.757C359.32 156.178 363.594 154.831 367.791 153.406C368.638 153.137 369.485 152.829 370.409 153.06C371.333 152.636 371.872 152.829 372.219 153.907C373.489 157.834 374.837 161.761 376.223 165.688C376.531 166.574 376.377 166.843 375.491 167.19C370.409 169.115 369.254 171.695 371.025 176.893C372.989 182.63 374.914 188.366 376.954 194.065C377.994 197.029 381.113 198.647 384.039 197.954C384.616 197.8 385.271 197.684 385.04 196.875C384.847 196.182 384.27 196.413 383.769 196.49C380.805 196.837 379.111 195.836 378.148 193.102C376.107 187.211 374.067 181.282 372.065 175.391C371.025 172.311 372.18 169.962 375.222 168.846C376.839 168.268 378.494 167.768 380.112 167.229C380.959 167.614 381.228 168.422 381.613 169.154C385.078 175.93 388.351 182.784 391.662 189.637C392.009 190.33 392.124 191.1 392.355 191.793C391.97 193.102 391.008 193.911 389.853 194.45C389.352 194.681 388.89 194.912 389.198 195.528C389.506 196.182 389.968 195.951 390.469 195.759C391.508 195.335 392.24 194.45 393.087 193.68Z" fill="black"/>
<path d="M370.409 153.021C365.404 154.715 360.437 156.409 355.432 158.065C354.354 157.41 354.084 156.217 353.545 155.254C352.159 152.636 352.737 152.79 349.926 153.791C346.73 154.946 343.457 155.87 339.992 155.216C338.414 154.946 336.989 154.292 335.256 153.406C336.373 157.487 337.72 161.145 337.913 165.034C337.913 165.457 337.72 165.804 337.335 165.958C332.369 167.344 327.363 168.692 322.396 170.078C319.047 162.416 317.892 154.138 316.044 146.091C315.119 142.009 316.236 139.622 319.855 137.466C321.472 136.504 323.359 135.887 324.707 134.463C326.208 135.618 326.709 137.004 325.823 138.236C323.975 140.777 324.014 143.395 325.13 146.168C325.669 148.67 326.478 151.096 327.171 153.56C327.248 153.868 327.363 154.176 327.479 154.446C327.671 154.869 327.979 155.254 328.48 155.177C329.173 155.062 329.173 154.484 329.096 153.984C328.942 152.636 328.672 151.327 328.557 149.979C328.518 149.594 328.518 149.209 328.749 148.863C329.173 148.516 329.673 148.478 330.212 148.478C333.177 148.439 334.91 146.784 335.911 144.166C336.719 142.009 336.796 141.971 338.953 142.625C342.11 143.626 345.46 142.009 346.461 139.083C347.539 135.926 345.96 132.384 342.957 131.306C339.838 130.189 336.45 131.729 335.295 134.886C334.486 137.043 334.371 137.851 331.599 136.696C330.636 136.272 329.596 136.388 328.557 136.696C327.171 137.081 326.555 136.35 326.17 135.156C325.746 133.962 326.324 133.308 327.325 132.884C332.369 130.69 337.181 127.956 342.264 125.838C347.885 123.49 353.507 124.183 358.897 127.032C361.323 126.801 363.44 127.494 364.557 129.766C365.75 132.191 364.826 134.424 363.017 136.195C362.054 137.158 362.093 137.89 362.709 139.006C365.019 143.241 367.252 147.554 369.524 151.828C369.755 152.251 370.101 152.636 370.409 153.021Z" fill="#FD9993"/>
<path d="M358.897 127.07C355.816 126.223 352.813 125.107 349.579 125.068C346.499 124.991 343.611 125.492 340.877 126.955C336.488 129.342 331.945 131.382 327.401 133.462C326.785 133.731 325.9 133.885 326.516 134.886C326.939 135.541 326.747 136.965 328.325 136.349C330.328 135.541 332.214 136.195 334.216 137.273C334.524 134.463 335.602 132.152 338.298 131.036C339.953 130.343 341.647 130.304 343.341 130.959C346.807 132.345 348.385 136.349 346.845 139.737C345.19 143.395 341.339 144.473 336.912 142.356C336.565 144.319 336.064 146.206 334.447 147.592C332.792 148.978 330.905 149.209 328.865 149.094C326.67 149.363 325.553 147.939 324.668 146.283C323.282 143.318 323.359 140.585 325.553 137.928C326.554 136.734 325.014 135.695 324.745 134.54C324.668 133.885 324.052 133.885 323.628 133.654C319.893 131.69 317.699 127.648 318.122 123.489C318.507 119.716 322.204 116.751 326.939 116.405C329.481 116.212 331.945 116.597 334.178 117.791C335.256 118.33 335.911 118.215 336.835 117.445C340.839 114.172 345.267 112.978 350.195 115.211C352.12 116.097 353.66 117.445 354.7 119.254C356.201 121.757 357.934 124.221 358.897 127.07Z" fill="black"/>
<path d="M338.798 249.739C339.53 249.816 340.223 249.97 340.762 250.509C339.838 251.511 338.606 251.202 337.489 251.202C325.438 251.241 313.386 251.202 301.335 251.202C300.68 251.202 300.064 251.241 299.41 251.202C298.139 251.164 297.485 251.703 297.523 253.012C297.523 253.59 297.523 254.167 297.523 254.745C297.523 297.367 297.523 339.989 297.523 382.573C297.523 386.115 297.523 386.115 301.143 386.115C321.395 386.115 341.647 386.115 361.9 386.115C363.093 386.115 364.364 385.846 365.403 386.808C365.75 387.078 365.788 387.463 365.75 387.848C364.98 388.657 363.979 388.503 363.055 388.503C358.049 388.541 353.044 388.503 348.039 388.503C345.767 388.503 345.613 388.695 345.613 390.89C345.574 392.815 345.613 394.74 345.613 396.665C345.651 399.014 345.767 399.206 348.116 399.206C354.507 399.245 360.937 399.206 367.328 399.206C368.368 399.206 369.408 399.129 370.293 399.784C370.37 400.053 370.486 400.323 370.563 400.554C369.831 401.285 368.907 401.131 368.022 401.131C365.788 401.17 363.517 401.17 361.284 401.131C360.013 401.131 359.512 401.67 359.435 402.979C359.204 407.215 359.204 407.176 363.478 407.253C366.751 407.33 370.024 406.907 373.258 407.523C373.373 407.908 373.489 408.254 373.566 408.639C368.83 408.678 364.094 408.678 359.358 408.716C358.203 408.716 357.703 408.408 357.78 407.176C357.857 405.559 357.703 403.981 357.818 402.363C357.934 400.862 357.318 400.515 355.932 400.554C352.582 400.631 349.271 400.515 345.921 400.631C344.419 400.669 343.88 400.246 343.919 398.706C344.034 395.587 343.919 392.43 343.957 389.273C343.996 388.117 343.649 387.732 342.456 387.732C336.372 387.771 330.289 387.771 324.206 387.732C323.089 387.732 322.627 387.963 322.665 389.196C322.704 396.126 322.742 403.056 322.665 409.948C322.627 411.412 323.513 411.566 324.437 411.989C331.444 415.223 335.525 420.614 335.795 428.391C336.064 436.361 332.407 442.214 325.361 445.794C316.159 450.415 304.954 446.295 300.526 436.9C296.214 427.775 300.257 416.571 309.498 412.413C311.423 411.566 312.077 410.603 312.039 408.485C311.846 402.132 311.923 395.779 312 389.465C312 388.117 311.654 387.694 310.306 387.732C306.186 387.809 302.105 387.694 297.985 387.809C296.291 387.848 295.791 387.347 295.829 385.653C295.906 372.755 295.868 359.895 295.868 346.997C295.868 315.348 295.868 283.66 295.829 252.011C295.829 250.086 296.253 249.547 298.255 249.547C311.731 249.778 325.284 249.701 338.798 249.739Z" fill="#5B84B0"/>
<path d="M99.4277 155.177C99.0811 154.792 98.6961 154.446 98.3496 154.06C98.3496 153.175 98.3881 152.251 98.3881 151.365C98.3881 110.091 98.3881 68.8159 98.3881 27.5027C98.3881 25 98.3881 25 100.852 25C154.217 25 207.543 25 260.907 25C263.41 25 263.41 25 263.41 27.4257C263.41 41.0171 263.371 54.6084 263.371 68.1998C263.102 67.9303 262.871 67.6608 262.601 67.3913C261.793 66.4672 262.024 65.3122 262.024 64.2726C262.024 52.8758 262.024 41.4406 262.024 30.0438C262.024 29.3893 262.024 28.7733 261.985 28.1187C261.947 27.1176 261.523 26.5786 260.484 26.5401C259.829 26.5016 259.213 26.5016 258.559 26.5016C206.888 26.5016 155.179 26.5016 103.509 26.5016C100.159 26.5016 100.159 26.5016 100.159 29.9283C100.159 70.3945 100.159 110.861 100.121 151.288C100.121 152.636 100.544 154.06 99.4277 155.177Z" fill="#6088B2"/>
<path d="M435.016 78.6341C434.362 79.2886 434.67 80.0972 434.67 80.8287C434.67 108.551 434.67 136.311 434.67 164.033C434.67 164.61 434.824 165.265 434.593 165.727C434.284 166.381 434.092 165.688 433.861 165.496C433.322 164.726 433.283 163.84 433.322 162.955C433.399 161.569 432.744 161.03 431.397 161.107C430.511 161.145 429.626 161.068 428.856 160.567C428.317 160.221 427.932 159.874 429.01 159.759C430.627 159.605 432.282 160.144 433.861 159.412C433.9 158.642 433.938 157.872 433.938 157.102C433.938 131.383 433.977 105.701 433.9 79.9817C433.9 78.0951 434.4 77.5945 436.248 77.6715C440.676 77.787 445.104 77.787 449.531 77.6715C451.187 77.633 451.688 78.0181 451.688 79.7507C451.611 91.4939 451.649 103.199 451.649 114.942C451.649 134.886 451.649 154.792 451.649 174.736C451.649 178.202 452.034 177.701 448.723 177.778C448.415 177.778 448.068 177.817 447.76 177.817C447.221 177.432 446.836 177.162 447.914 177.047C448.877 176.931 449.916 177.47 450.802 176.662C449.993 175.583 450.225 174.313 450.225 173.119C450.225 143.203 450.225 113.286 450.225 83.3699C450.225 78.8266 450.455 79.2116 446.066 79.1731C443.256 79.1731 440.445 79.1731 437.596 79.1731C436.672 79.2501 435.786 79.2886 435.016 78.6341Z" fill="#5E86B1"/>
<path d="M442.409 232.567C442.409 232.298 442.37 231.99 442.37 231.72C443.371 230.873 444.565 231.143 445.681 231.143C460.312 231.143 474.905 231.143 489.536 231.143C493.347 231.143 493.347 231.143 493.347 227.331C493.347 220.015 493.347 212.738 493.347 205.423C493.347 201.996 493.347 201.996 489.998 201.996C480.911 201.996 471.786 201.996 462.699 201.996C461.698 201.996 460.62 202.15 459.735 201.457C459.735 201.149 459.735 200.841 459.735 200.495C470.631 200.533 481.527 200.572 492.423 200.495C494.271 200.495 494.772 200.995 494.733 202.843C494.656 212.084 494.656 221.286 494.733 230.527C494.733 232.105 494.348 232.567 492.731 232.567C479.794 232.49 466.858 232.567 453.921 232.49C452.227 232.49 451.649 232.837 451.688 234.646C451.765 243.694 451.688 252.704 451.649 261.752C450.995 260.944 450.918 259.981 450.879 259.018C450.456 257.286 450.302 255.515 450.302 253.705C450.34 247.699 450.34 241.654 450.302 235.647C450.302 233.299 450.109 233.222 447.76 233.106C445.912 233.029 444.064 233.453 442.409 232.567Z" fill="#5882AF"/>
<path d="M387.042 146.591C386.811 147.053 386.503 146.822 386.195 146.707C385.117 146.707 384.732 145.744 384.231 145.09C379.996 139.622 375.645 134.27 371.294 128.649C372.95 134.963 374.259 141.201 375.799 147.4C376.03 148.285 376.569 149.209 375.876 150.133C375.838 150.595 375.684 150.865 375.145 150.557C373.104 141.971 371.063 133.423 369.061 124.837C367.675 118.908 371.448 114.056 377.108 114.364C379.418 114.48 381.305 115.52 382.691 117.329C389.275 125.838 395.82 134.347 402.366 142.856C402.135 143.203 401.788 143.203 401.442 143.203C399.555 141.971 398.554 139.969 397.206 138.275C391.97 131.652 386.888 124.876 381.613 118.253C379.919 116.136 377.686 115.096 374.991 115.866C372.257 116.636 370.64 118.523 370.216 121.333C369.908 123.451 370.832 125.184 372.103 126.801C376.8 132.807 381.613 138.737 386.233 144.781C386.695 145.321 387.35 145.744 387.042 146.591Z" fill="#5A83AF"/>
<path d="M44.4846 365.17C44.7926 365.362 44.8696 365.632 44.8696 365.978C44.1381 366.71 43.214 366.556 42.3284 366.556C39.3637 366.595 36.4375 366.595 33.4728 366.556C31.9712 366.518 31.2396 366.98 31.2396 368.635C31.2781 379.454 31.2396 390.312 31.2781 401.131C31.2781 403.172 31.5476 403.403 33.6653 403.441C38.5552 403.48 43.4065 403.403 48.2964 403.48C49.875 403.48 50.4525 402.902 50.4525 401.324C50.414 396.395 50.414 391.467 50.4525 386.539C50.4525 385.538 50.26 384.46 51.1071 383.651C51.4536 384.575 51.8001 385.461 52.1467 386.385C52.0312 387.463 52.4932 388.541 52.3392 389.619C52.1082 391.429 52.4932 392.892 54.5338 393.354C54.8803 393.623 54.8804 394.008 54.8804 394.432C52.3007 395.125 52.2237 397.05 52.3392 399.283C52.4932 402.017 52.3777 404.75 52.3777 407.484C52.3777 408.293 52.4547 409.14 51.8771 409.833C51.6076 409.871 51.2996 409.871 51.0301 409.91C50.9916 408.331 51.5306 406.214 50.7221 405.29C49.7595 404.173 47.6033 404.943 45.9477 404.905C41.1348 404.866 36.322 404.866 31.5091 404.905C30.277 404.905 29.8535 404.596 29.8535 403.287C29.892 391.121 29.892 378.915 29.8535 366.749C29.8535 365.593 30.1615 365.17 31.3551 365.208C35.7445 365.208 40.1338 365.17 44.4846 365.17Z" fill="#5B84B0"/>
<path d="M392.278 191.716C388.582 184.208 384.848 176.662 381.151 169.154C380.805 168.461 380.42 167.806 380.073 167.151C382.807 166.42 385.156 167.498 386.08 170.078C388.236 176.277 390.315 182.514 392.432 188.751C392.779 189.791 392.702 190.753 392.278 191.716Z" fill="#6DB5DE"/>
<path d="M33.0498 447.912C55.3042 447.912 77.5587 447.912 99.8131 447.912C99.2741 448.451 98.6196 448.181 98.0035 448.181C94.7308 448.22 91.4581 448.181 88.1854 448.181C87.2228 448.181 86.1832 447.989 86.2988 449.529C86.3373 450.337 85.6057 450.299 85.0282 450.299C78.5598 450.299 72.0913 450.299 65.5844 450.299C65.0839 450.299 64.3523 450.376 64.3523 449.683C64.3523 447.796 63.0433 448.181 61.9652 448.181C52.9941 448.181 44.023 448.181 35.0134 448.181C34.3974 448.181 33.6658 448.489 33.0498 447.912Z" fill="#5982AF"/>
<path d="M99.9668 434.128C99.9668 433.82 99.9668 433.512 100.005 433.204C100.698 432.626 101.584 432.665 102.392 432.665C111.749 432.665 121.105 432.665 130.461 432.665C131.347 432.665 132.271 432.549 133.002 433.281C132.964 433.55 132.925 433.82 132.887 434.128C121.913 434.128 110.94 434.128 99.9668 434.128Z" fill="#5881AE"/>
<path d="M179.205 448.335C179.59 448.335 179.975 448.335 180.322 448.335C180.476 449.837 179.898 450.376 178.281 450.338C172.236 450.222 166.191 450.222 160.108 450.338C158.491 450.376 158.067 449.76 158.298 448.374C158.568 448.374 158.876 448.374 159.145 448.335C159.684 448.951 160.416 448.874 161.109 448.874C166.461 448.874 171.851 448.874 177.203 448.874C177.934 448.874 178.666 448.951 179.205 448.335Z" fill="#5982AF"/>
<path d="M376.145 159.027C377.262 161.261 378.648 163.417 379.303 165.842C378.456 166.15 377.84 166.343 377.532 165.072C377.07 163.186 376.377 161.338 375.76 159.451C375.529 159.027 375.799 158.989 376.145 159.027Z" fill="#08090A"/>
<path d="M324.283 204.884C324.783 205.307 325.168 205.731 324.976 206.462C322.666 204.807 320.587 202.92 318.7 200.726C320.856 201.688 322.473 203.382 324.283 204.884Z" fill="#668DB6"/>
<path d="M302.259 102.005C301.874 101.659 301.528 101.312 301.143 100.966C302.837 99.8105 303.607 97.6929 305.84 96.3838C305.07 98.925 302.721 99.8875 302.259 102.005Z" fill="#678CB4"/>
<path d="M263.487 155.909C263.179 155.909 262.91 155.909 262.602 155.87C261.908 154.754 261.908 153.637 262.64 152.52C262.91 152.366 263.179 152.251 263.41 152.097C263.449 153.368 263.449 154.638 263.487 155.909Z" fill="#567FAB"/>
<path d="M376.146 159.027C376.03 159.181 375.876 159.335 375.761 159.489C375.414 158.719 374.721 158.026 375.029 157.064C375.684 157.526 375.876 158.296 376.146 159.027Z" fill="#20272A"/>
<path d="M435.016 78.6341C439.675 78.6341 444.372 78.6726 449.031 78.5571C450.533 78.5186 450.802 79.0576 450.802 80.4052C450.764 92.957 450.764 105.509 450.764 118.061C450.764 137.581 450.764 157.141 450.725 176.662C447.76 177.278 445.489 176.277 443.371 174.159C441.099 171.849 438.558 169.77 436.056 167.69C435.285 167.074 434.939 166.42 434.939 165.419C435.016 136.503 435.016 107.588 435.016 78.6341Z" fill="#FEFEFE"/>
<path d="M425.968 360.357C428.24 369.174 430.473 377.991 432.745 386.808C432.09 387.386 431.32 387.309 430.55 387.309C420.886 387.309 411.183 387.309 401.519 387.309C400.749 387.309 399.979 387.347 399.286 386.847C394.666 374.641 390.045 362.475 385.425 350.269C384.732 348.421 384.077 346.535 383.423 344.686C385.309 344.147 387.235 344.455 389.121 344.417C398.246 344.224 407.41 344.109 416.535 343.916C417.998 343.878 418.499 344.263 418.537 345.803C418.691 350.539 419.076 355.236 419.269 359.972C419.307 361.204 419.692 361.435 420.886 361.204C422.58 360.896 424.197 360.01 425.968 360.357Z" fill="#FEFEFE"/>
<path d="M459.696 201.419C470.592 201.419 481.45 201.419 492.346 201.342C493.578 201.342 493.848 201.765 493.848 202.882C493.809 211.891 493.809 220.939 493.848 229.949C493.848 231.528 493.155 231.682 491.884 231.682C476.137 231.643 460.389 231.643 444.642 231.682C443.872 231.682 443.102 231.72 442.332 231.72C441.061 229.063 440.561 226.137 439.521 223.404C439.174 222.479 439.713 222.287 440.368 222.094C441.947 221.594 443.525 221.055 445.104 220.554C453.651 217.936 459.542 210.236 459.696 201.419Z" fill="#FEFEFE"/>
<path d="M381.575 216.05C382.075 215.934 382.614 215.819 383.115 215.703C385.964 221.325 388.813 226.946 391.662 232.606C391.624 233.106 391.239 233.299 390.854 233.453C380.266 237.188 369.639 240.845 358.897 244.156C355.816 245.119 352.967 244.657 350.465 242.501C349.695 241.846 348.925 241.115 349.079 239.921C349.618 239.074 350.542 238.959 351.35 238.651C354.353 237.611 357.434 236.726 360.629 235.301C359.821 235.07 359.32 235.378 358.858 235.493C356.047 236.34 353.352 237.496 350.542 238.381C349.849 238.612 349.117 238.997 348.347 238.612C347.577 237.611 347.115 236.495 347.5 235.224C348.039 234.492 348.886 234.338 349.656 234.069C352.12 233.222 354.623 232.452 357.087 231.566C357.703 231.335 358.473 231.297 358.974 230.565C355.085 231.489 351.581 233.26 347.731 233.992C346.653 233.876 346.614 233.145 346.768 232.298C347.076 230.681 347.808 229.218 349.156 228.293C351.466 226.715 353.853 225.252 356.433 224.174C357.472 224.251 358.473 224.02 359.397 223.635C362.516 222.364 365.789 221.517 368.83 220.092C366.251 220.631 363.825 221.594 361.322 222.326C360.629 222.557 359.821 223.211 359.128 222.21C361.515 218.591 364.942 216.358 369.138 215.896C373.258 215.511 377.455 215.588 381.575 216.05Z" fill="#FD9993"/>
<path d="M387.041 146.591C381.805 139.892 376.492 133.192 371.294 126.454C367.983 122.18 370.023 116.444 375.183 115.327C377.801 114.749 380.111 115.597 381.728 117.637C388.351 126.108 394.896 134.655 401.441 143.203C397.476 143.164 393.779 144.358 390.122 145.783C389.159 146.168 388.197 146.745 387.041 146.591Z" fill="#FEFEFE"/>
<path d="M390.738 232.991C391.046 232.837 391.354 232.721 391.624 232.567C392.124 233.53 392.779 234.415 393.125 235.417C393.741 237.188 394.704 237.265 396.321 236.687C400.941 235.031 405.639 233.607 410.259 231.99C411.375 231.605 411.722 231.797 411.76 232.952C411.837 235.378 411.991 237.804 412.068 240.191C401.904 243.002 391.739 245.774 381.536 248.584C381.228 248.661 380.92 248.661 380.573 248.7C380.573 247.622 381.459 247.352 382.19 247.044C384.847 245.812 387.35 244.234 389.968 242.925C392.817 241.5 393.318 239.69 391.97 236.764C391.508 235.571 390.045 234.608 390.738 232.991Z" fill="black"/>
<path d="M375.838 150.172C374.259 143.318 372.642 136.465 371.064 129.65C370.91 129.034 370.794 128.418 370.987 127.648C376.03 134.039 381.113 140.392 386.156 146.783C385.925 147.554 385.194 147.592 384.616 147.785C382.268 148.632 379.919 149.44 377.57 150.287C376.993 150.441 376.415 150.788 375.838 150.172Z" fill="#FEFEFE"/>
<path d="M442.409 232.567C444.757 232.529 447.145 232.567 449.493 232.49C450.648 232.452 450.879 232.875 450.879 233.915C450.841 242.27 450.841 250.625 450.841 259.018C448.916 254.552 447.876 249.816 446.336 245.196C444.911 240.999 443.679 236.764 442.409 232.567Z" fill="#FEFEFE"/>
<path d="M428.894 160.567C428.971 160.567 429.01 160.567 429.087 160.529C434.169 160.336 434.169 160.336 433.861 165.496C432.051 164.033 430.396 162.377 428.894 160.567Z" fill="#FDFDFE"/>
<path d="M416.612 324.011C417.267 323.318 416.689 322.432 416.997 321.7C417.498 322.971 417.267 324.319 417.344 326.128C416.843 325.204 416.574 324.665 416.612 324.011Z" fill="#83614C"/>
<path d="M246.585 80.7902C246.508 80.8672 246.43 80.9827 246.315 81.0597C243.196 83.7549 243.196 83.7549 246.354 86.6426C248.163 88.2982 249.896 89.9923 251.628 91.6479C252.013 92.5334 252.09 93.496 252.09 94.4586C252.09 103.314 252.09 112.17 252.09 120.987C252.09 121.872 252.206 122.796 251.551 123.566C241.464 127.032 231.337 130.497 221.25 133.924C219.979 134.347 218.632 134.463 217.284 134.386C216.129 131.768 216.283 129.034 216.475 126.3C216.552 125.376 217.323 125.107 218.131 124.991C219.671 124.799 221.134 124.375 222.636 123.99C229.412 122.103 232.493 117.676 231.992 110.129C231.877 108.55 231.723 106.933 231.723 105.355C231.684 104.739 231.568 104.123 231.414 103.507C231.068 101.12 230.413 98.7709 230.529 96.3452C233.109 93.3805 233.147 93.0725 230.606 89.8768C229.913 89.0297 230.105 88.2212 230.413 87.3741C230.837 86.142 230.49 85.757 229.181 85.911C221.673 86.8736 214.204 87.7976 206.696 88.9527C202.422 89.6073 199.727 92.2254 198.456 96.3452C198.225 97.0767 198.11 97.8468 197.263 98.2318C193.451 98.6553 189.601 98.4243 185.789 98.3858C184.249 98.3858 184.018 97.1922 184.018 95.9602C184.018 91.8789 184.018 87.7976 184.018 83.7164C184.018 81.1752 183.979 81.1752 181.438 81.1367C179.86 81.0982 178.242 81.3677 176.664 80.9057C175.701 80.2126 176.048 79.2116 176.163 78.2875C176.317 77.0939 176.356 75.9004 176.702 74.7453C176.972 73.7057 177.588 72.7816 177.357 71.6266C177.549 70.0095 178.088 68.5079 178.743 67.0448C180.168 63.9261 179.975 60.9999 178.165 58.1507C177.896 57.7272 177.472 57.6887 177.049 57.7272C176.009 57.4961 175.085 56.9956 174.392 56.1871C174.007 55.5325 173.391 55.4555 172.698 55.5325C168.54 54.647 165.498 56.1486 163.303 59.7678C158.414 67.8918 153.716 76.1314 148.942 84.2939C148.364 85.295 147.787 86.296 147.209 87.2971C146.824 87.9131 146.593 88.7602 145.631 88.7987C145.323 88.7217 145.015 88.6447 144.707 88.5292C140.779 86.9891 140.779 86.9891 138.662 90.5698C130.268 104.816 121.836 119.062 113.443 133.308C111.902 135.926 110.824 138.698 110.593 141.778C109.746 141.586 109.823 140.854 109.746 140.238C109.669 139.545 109.708 138.813 109.708 138.12C109.708 105.355 109.708 72.6276 109.708 39.862C109.708 35.7422 109.708 35.7422 113.905 35.7422C158.529 35.7422 203.115 35.7422 247.74 35.7422C248.394 35.7422 249.01 35.7037 249.665 35.7422C251.436 35.8192 252.013 36.3197 252.013 38.0909C252.013 45.4448 252.167 52.8373 251.936 60.1913C251.782 61.0769 251.051 61.3464 250.319 61.6544C246.507 63.1175 243.273 65.5432 240.347 68.3154C237.921 70.6255 237.844 73.3592 240.078 75.9774C241.387 77.556 242.888 78.9421 244.929 79.6351C245.622 79.8276 246.392 79.9431 246.585 80.7902Z" fill="#FEFEFE"/>
<path d="M99.4281 155.177C99.4281 153.637 99.3896 152.097 99.3896 150.557C99.3896 109.744 99.3896 68.9315 99.3511 28.0803C99.3511 26.3862 99.7361 25.8472 101.546 25.8472C154.487 25.8857 207.428 25.8857 260.369 25.8472C262.063 25.8472 262.64 26.1937 262.64 28.0033C262.563 41.1327 262.602 54.262 262.64 67.4299C261.37 67.9304 260.6 69.0855 259.483 69.7785C258.636 69.6245 258.521 68.8545 258.251 68.1999C257.134 65.6588 255.825 63.2716 253.284 61.8855C252.63 61.539 252.245 60.9615 252.168 60.1914C252.052 52.7989 252.129 45.445 252.129 38.091C252.129 35.7038 252.129 35.7038 249.781 35.7038C203.962 35.7038 158.106 35.7038 112.288 35.7038C110.016 35.7038 109.939 35.7423 109.939 38.091C109.939 72.1272 109.862 106.163 109.978 140.2C110.016 147.323 109.978 154.407 110.055 161.53C110.055 162.377 110.44 163.494 109.208 163.994C105.935 161.03 102.701 158.103 99.4281 155.177Z" fill="#FEFEFE"/>
<path d="M202.23 135.926C193.913 136.349 185.597 136.195 177.28 136.311C165.999 136.465 154.756 136.542 143.475 136.619C143.167 136.619 142.859 136.619 142.127 136.619C147.787 126.339 153.293 116.289 158.799 106.24C163.997 105.971 169.156 106.163 174.354 106.163C175.894 106.163 176.241 107.203 176.279 108.512C176.318 111.977 176.279 115.442 176.279 118.908C176.279 123.836 176.279 123.836 181.285 123.797C181.593 123.797 181.939 123.759 182.247 123.797C183.595 123.951 184.018 123.335 184.018 122.026C183.98 117.714 183.98 113.44 184.018 109.128C184.018 106.433 184.326 106.125 186.983 106.125C189.755 106.125 192.489 106.125 195.261 106.125C196.069 106.125 196.955 106.009 197.648 106.587C198.264 107.588 197.571 108.242 197.032 108.974C194.221 112.593 194.914 115.25 199.265 116.905C200.959 117.56 201.575 118.561 201.652 120.332C201.845 124.876 202.268 129.38 202.499 133.885C202.576 134.655 202.807 135.348 202.23 135.926Z" fill="#FEFEFE"/>
<path d="M202.23 135.926C201.845 130.458 201.46 124.952 201.113 119.485C201.036 118.523 200.767 117.945 199.766 117.752C199.15 117.637 198.534 117.367 197.956 117.098C194.337 115.327 193.721 111.669 196.531 108.781C196.993 108.281 197.725 107.973 197.763 107.164C197.917 107.049 198.072 107.049 198.226 107.087C198.842 107.203 199.342 106.895 199.804 106.548C205.502 102.505 211.085 98.3857 215.59 92.9568C216.399 91.9943 217.323 91.4552 218.593 91.8788C222.444 93.0724 226.178 94.574 229.99 95.8445C230.298 95.96 230.568 96.1141 230.683 96.4606C231.261 98.8477 231.53 101.273 231.761 103.699C231.453 104.161 230.491 104.161 230.645 104.854C230.799 105.663 231.684 104.97 232.108 105.316C232.031 108.358 232.801 111.361 232.339 114.48C231.569 119.639 228.488 122.681 223.791 124.298C221.943 124.952 220.018 125.491 218.016 125.607C217.015 125.645 216.668 126.069 216.745 127.032C216.938 129.496 217.053 131.998 217.207 134.501C212.279 135.117 207.312 136.08 202.23 135.926Z" fill="#FD9993"/>
<path d="M174.508 55.9177C175.432 56.4567 176.356 56.9572 177.28 57.4963C177.511 58.6898 176.741 59.5369 176.202 60.4609C174.623 63.1561 173.045 65.8513 171.736 68.662C174.277 65.1198 176.24 61.2695 178.512 57.5733C178.897 58.3433 179.205 59.1519 179.629 59.8834C180.476 61.3465 180.591 62.8866 180.091 64.4652C179.32 66.8909 178.473 69.278 177.665 71.6652C175.316 75.3999 173.16 79.2117 171.196 83.1774C171.967 82.7539 172.313 81.9454 172.698 81.2523C173.738 79.2887 175.047 77.4406 176.048 75.4384C176.279 75.0149 176.394 74.2834 177.203 74.4759C176.972 76.478 176.741 78.4416 176.471 80.4438C176.625 81.3293 176.394 82.0994 176.009 82.8694C174.854 85.3336 173.276 87.3742 171.12 89.0683C168.424 91.186 165.96 93.5346 163.458 95.8448C157.528 93.4576 151.599 91.109 145.669 88.7218C148.711 84.14 151.252 79.2502 154.063 74.5529C157.22 69.278 160.262 63.9647 163.458 58.7283C165.729 55.0706 168.886 53.9925 173.045 55.1861C173.276 56.3797 172.506 57.2267 171.967 58.1508C170.426 60.7305 168.925 63.3101 167.462 65.9283C167.385 66.0438 167.385 66.1593 167.423 66.3903C168.001 66.2748 168.155 65.7743 168.386 65.3893C169.887 62.9636 171.273 60.4224 172.737 57.9583C173.16 57.1882 173.353 56.1102 174.508 55.9177Z" fill="#FD9993"/>
<path d="M159.877 104.392C160.801 102.583 161.764 100.773 162.688 99.0018C163.458 98.4242 164.343 98.4627 165.267 98.4627C168.194 98.4627 171.158 98.4627 174.085 98.4627C176.202 98.4627 176.279 98.3857 176.279 96.3451C176.279 92.1868 176.279 88.0286 176.279 83.8703C176.279 81.1751 176.51 80.9826 179.244 80.9441C180.129 80.9441 181.054 80.9441 181.939 80.9441C184.018 80.9826 184.134 81.0596 184.134 83.1002C184.172 87.451 184.134 91.8018 184.134 96.1526C184.134 98.3857 184.172 98.4242 186.367 98.4242C189.293 98.4242 192.258 98.4242 195.184 98.4242C195.992 98.4242 196.84 98.3472 197.61 98.8478C198.418 99.8488 198.187 101.004 198.187 102.12C198.072 106.741 198.341 106.279 193.798 106.279C191.18 106.279 188.562 106.317 185.943 106.279C184.634 106.24 184.134 106.702 184.134 108.05C184.172 112.478 184.172 116.867 184.134 121.295C184.134 123.451 183.864 123.72 181.708 123.797C180.745 123.836 179.783 123.836 178.82 123.797C176.741 123.759 176.279 123.297 176.241 121.141C176.202 117.098 176.241 113.094 176.241 109.051C176.241 106.317 176.241 106.317 173.507 106.317C169.464 106.317 165.46 106.317 161.417 106.317C160.07 106.317 159.3 105.932 159.877 104.392Z" fill="#FEFEFE"/>
<path d="M109.208 163.994C109.631 163.263 109.4 162.493 109.4 161.723C109.4 120.371 109.4 79.0577 109.4 37.706C109.4 35.2033 109.4 35.2033 111.864 35.2033C157.952 35.2033 204.039 35.2033 250.127 35.1648C252.052 35.1648 252.63 35.6268 252.591 37.5905C252.476 45.4065 252.514 53.2225 252.514 61.0385C252.129 61.539 251.821 61.462 251.552 60.9615C251.552 53.415 251.513 45.83 251.59 38.2835C251.59 36.7819 251.321 36.2044 249.626 36.2044C203.77 36.2429 157.952 36.2429 112.095 36.2044C110.709 36.2044 110.247 36.5124 110.247 38.014C110.286 71.9732 110.286 105.971 110.286 139.93C110.286 140.546 110.17 141.239 110.594 141.778C110.594 143.318 110.594 144.82 110.594 146.36C110.209 147.977 110.902 149.517 110.863 151.096C110.748 155.678 111.287 160.26 110.478 164.841C110.44 165.111 110.517 165.342 110.632 165.573C110.786 166.92 110.709 168.23 110.286 169.5C108.938 169.77 109.131 168.73 109.015 167.999C108.938 167.305 108.977 166.612 109.516 166.073C110.324 165.188 109.747 164.61 109.208 163.994Z" fill="#648AB4"/>
<path d="M251.59 60.9229C251.898 61.1154 252.206 61.1539 252.553 60.9999C255.825 62.3089 257.442 65.0426 258.713 68.0458C258.944 68.6234 259.214 69.2009 259.483 69.7784C259.445 71.4725 259.714 73.2052 258.366 74.6683C257.596 75.5153 257.019 75.8618 256.249 74.6298C254.94 72.6661 253.515 70.7795 252.091 68.8929C251.744 68.3923 251.321 67.6608 250.589 68.2768C249.973 68.8159 250.589 69.3164 250.897 69.7399C252.206 71.5496 253.438 73.4362 254.863 75.1303C255.864 76.3239 255.671 77.0169 254.324 77.633C253.977 77.787 253.669 78.018 253.361 78.2875C252.668 78.865 252.283 78.788 251.744 77.9795C250.473 76.0543 249.087 74.2447 247.701 72.3966C247.316 71.8961 247.047 70.8565 246.161 71.434C245.237 72.0501 246.161 72.6661 246.508 73.1667C247.74 74.9378 249.049 76.6704 250.319 78.4415C251.321 79.8276 251.128 80.3281 249.357 80.5976C248.433 80.7132 247.47 80.7132 246.508 80.7517C244.121 79.7891 241.887 78.711 240.116 76.7089C237.229 73.4362 237.152 70.1635 240.463 67.3913C243.851 64.6961 247.008 61.6159 251.59 60.9229Z" fill="#FD9993"/>
<path d="M262.64 119.716C259.329 120.871 256.018 122.026 252.668 123.143C251.975 122.488 252.09 121.603 252.09 120.794C252.09 112.285 252.09 103.738 252.09 95.2286C252.09 94.343 251.782 93.2649 252.976 92.7644C256.21 95.8446 259.444 98.8863 262.717 101.967C263.179 102.621 263.218 103.391 263.218 104.161C263.218 108.627 263.218 113.094 263.218 117.56C263.218 118.33 263.218 119.139 262.64 119.716Z" fill="#FDFEFE"/>
<path d="M263.757 102.813C268.031 106.818 272.305 110.784 276.848 114.98C272.151 116.482 267.915 118.215 263.449 119.408C262.987 118.946 263.064 118.33 263.064 117.791C263.064 113.402 263.026 108.974 263.064 104.585C263.064 103.93 262.795 103.083 263.757 102.813Z" fill="#FEFEFE"/>
<path d="M163.419 95.8832C164.998 92.9955 167.847 91.3784 170.196 89.2992C172.39 87.4126 174.315 85.372 175.663 82.8308C176.24 83.3698 176.24 84.0629 176.24 84.7944C176.24 88.4907 176.279 92.1869 176.24 95.8832C176.202 97.9238 175.778 98.3858 173.776 98.4243C170.966 98.4628 168.155 98.4243 165.344 98.4243C164.651 98.4243 163.92 98.4243 163.381 97.8468C163.304 97.1923 164.651 96.5377 163.419 95.8832Z" fill="#FEFEFE"/>
<path d="M163.419 97.8467C167.077 97.8467 170.734 97.8467 174.392 97.9237C175.509 97.9622 175.817 97.5387 175.778 96.4606C175.701 91.9173 175.701 87.374 175.701 82.7922C175.971 82.0221 175.971 81.1366 176.51 80.4435C178.704 80.4435 180.86 80.5205 183.055 80.4435C184.326 80.405 184.711 80.8286 184.672 82.0992C184.595 86.7195 184.711 91.3398 184.634 95.9216C184.595 97.3462 184.903 97.9622 186.52 97.8852C190.217 97.7312 193.951 97.8082 197.686 97.8082C198.033 98.1932 198.033 98.5783 197.686 98.9248C193.72 98.8863 189.755 98.8093 185.789 98.8478C184.287 98.8863 183.787 98.4627 183.825 96.8841C183.941 92.2253 183.825 87.528 183.902 82.8692C183.902 81.6371 183.556 81.0981 182.285 81.2521C180.514 81.4446 178.204 80.482 177.126 81.6756C176.279 82.5997 176.818 84.8328 176.818 86.4884C176.779 90.0307 176.741 93.5344 176.856 97.0767C176.895 98.4242 176.394 98.8478 175.085 98.8093C171.004 98.7708 166.884 98.8478 162.803 98.8863C162.918 98.6168 163.188 98.2317 163.419 97.8467Z" fill="#6088B2"/>
<path d="M159.877 104.392C159.723 105.624 160.301 105.971 161.494 105.971C165.768 105.894 170.081 106.048 174.354 105.894C176.164 105.855 176.818 106.279 176.741 108.204C176.587 112.67 176.741 117.175 176.664 121.641C176.626 122.989 177.049 123.489 178.397 123.374C180.091 123.22 182.286 124.067 183.402 123.027C184.442 122.026 183.71 119.87 183.71 118.215C183.749 114.634 183.787 111.053 183.71 107.472C183.672 106.279 184.018 105.932 185.212 105.932C188.677 106.009 192.143 105.855 195.569 106.009C197.302 106.086 197.879 105.547 197.571 103.892C197.456 103.353 197.61 102.737 197.648 102.198C198.803 103.391 198.88 105.355 197.918 107.241C197.841 107.241 197.764 107.203 197.687 107.203C196.57 106.433 195.338 106.895 194.145 106.856C191.526 106.779 188.908 106.933 186.29 106.779C184.789 106.702 184.48 107.241 184.519 108.627C184.596 113.286 184.519 117.984 184.596 122.642C184.635 123.99 184.211 124.452 182.863 124.375C181.131 124.259 179.398 124.259 177.666 124.375C175.971 124.49 175.625 123.759 175.663 122.257C175.74 117.907 175.702 113.556 175.702 109.205C175.702 106.51 176.01 106.818 173.199 106.779C169.118 106.779 164.998 106.779 160.917 106.779C160.147 106.779 159.377 106.895 158.761 106.279C158.953 105.547 159.415 104.97 159.877 104.392Z" fill="#5C85B0"/>
<path d="M110.632 165.534C110.247 165.188 110.286 164.726 110.286 164.302C110.286 158.719 110.286 153.175 110.286 147.592C110.286 147.169 110.247 146.668 110.632 146.322C111.133 150.595 112.711 154.369 115.638 157.564C113.135 159.682 111.017 162.069 110.632 165.534Z" fill="#FDFDFD"/>
<path d="M253.015 92.8029C252.668 92.9569 252.591 93.2649 252.591 93.6114C252.63 103.468 252.668 113.325 252.668 123.181C252.283 123.335 251.898 123.451 251.513 123.605C251.552 114.056 251.552 104.508 251.59 94.959C251.59 93.8809 251.59 92.7643 251.629 91.6863C252.091 92.0328 252.553 92.4178 253.015 92.8029Z" fill="#5781AE"/>
<path d="M262.64 152.521C262.64 153.637 262.602 154.754 262.602 155.87C260.176 155.793 257.712 156.371 255.286 155.562C257.789 154.638 260.061 153.214 262.64 152.521Z" fill="#F9F9FA"/>
<path d="M263.756 102.814C263.141 103.314 263.449 104.007 263.449 104.623C263.41 109.552 263.449 114.48 263.449 119.408C263.256 119.678 262.948 119.755 262.64 119.716C262.679 113.787 262.717 107.896 262.717 101.967C263.141 102.159 263.564 102.352 263.756 102.814Z" fill="#5781AD"/>
<path d="M63.351 393.354C59.3853 382.496 55.4195 371.638 51.8003 360.627C51.4153 359.087 51.2612 357.508 51.2612 355.891C51.2612 333.29 51.2612 310.689 51.2612 288.088C51.2612 286.548 51.2997 285.008 52.0313 283.583C53.4944 280.695 55.689 278.886 59.1158 278.886C75.4409 278.886 91.766 278.886 108.13 278.886C108.9 278.886 109.67 278.847 110.324 279.386C110.363 283.93 110.517 288.473 110.401 293.016C110.132 300.986 115.792 305.876 122.183 305.799C133.926 305.761 145.67 305.799 157.374 305.799C159.607 305.799 159.915 306.107 159.492 308.417C158.106 315.964 156.566 323.51 155.064 331.057C151.098 350.847 147.133 370.676 143.167 390.466C142.936 391.621 142.974 392.969 141.665 393.662C140.857 393.97 140.01 393.893 139.201 393.893C114.867 393.893 90.4954 393.893 66.1617 393.893C65.1607 393.854 64.1596 394.047 63.351 393.354Z" fill="#FEFEFE"/>
<path d="M50.7607 358.278C39.3639 326.205 28.0057 294.133 16.5704 262.099C16.1469 260.944 16.1084 260.366 17.302 259.712C18.9191 258.864 19.8431 257.209 20.8057 255.707C43.1372 220.208 65.5072 184.709 87.8002 149.209C88.5702 147.977 88.9937 147.631 90.1873 148.786C92.844 151.365 95.6547 153.83 98.3884 156.332C98.9274 157.179 98.9274 158.142 98.9274 159.104C98.9274 165.149 98.9659 171.233 98.8889 177.278C98.8889 178.779 99.3125 179.318 100.853 179.28C103.201 179.203 105.588 179.241 107.937 179.28C108.746 179.28 109.631 179.203 110.286 179.819C110.324 180.473 110.401 181.089 110.401 181.744C110.401 213.354 110.401 244.965 110.401 276.537C110.401 277.23 110.324 277.923 110.247 278.655C109.477 279.348 108.553 279.078 107.667 279.078C91.5734 279.078 75.5179 279.194 59.4238 279.001C54.9575 278.963 51.3382 282.813 51.3767 287.125C51.4538 309.996 51.4153 332.866 51.3767 355.737C51.4153 356.584 51.8773 357.662 50.7607 358.278Z" fill="#FEFEFE"/>
<path d="M141.858 393.431C143.128 387.232 144.438 381.033 145.708 374.834C149.789 354.505 153.832 334.175 157.875 313.846C158.299 311.767 158.645 309.688 159.146 307.647C159.492 306.145 158.992 305.799 157.528 305.799C145.747 305.837 133.926 305.799 122.145 305.799C134.773 305.799 147.402 305.799 160.031 305.799C170.273 305.799 180.553 305.799 190.795 305.799C191.565 305.799 192.335 305.876 193.105 305.914C193.759 307.3 192.912 308.61 192.835 309.996C191.68 316.541 190.371 323.086 189.139 329.632C185.789 347.189 182.517 364.746 178.936 382.265C178.204 385.923 177.434 389.542 176.626 393.161C176.51 393.662 176.279 394.162 176.241 394.701C174.701 402.633 172.814 410.487 171.043 418.342C170.927 418.958 170.85 419.651 170.196 419.959C158.992 420.036 147.826 420.074 136.622 420.151C136.237 419.651 136.314 419.073 136.429 418.496C137.931 410.487 139.471 402.479 141.203 394.509C141.357 394.124 141.473 393.7 141.858 393.431Z" fill="url(#paint1_linear_49_370)"/>
<path d="M205.272 305.914C204.617 324.819 204.001 343.762 203.347 362.667C203.308 363.476 203.154 364.323 203.077 365.131C202.461 365.747 201.691 365.709 200.921 365.709C199.188 365.709 197.456 365.747 195.723 365.709C193.221 365.67 192.913 365.362 192.874 362.783C192.874 362.398 192.874 362.013 192.874 361.628C192.874 344.764 192.874 327.938 192.874 311.074C192.874 309.341 192.951 307.609 193.413 305.953C197.379 305.645 201.306 305.76 205.272 305.914Z" fill="#FEFEFE"/>
<path d="M109.477 165.996C109.785 167.151 108.515 168.614 110.247 169.423C110.44 172.58 110.517 175.776 110.209 178.933C109.824 179.356 109.323 179.357 108.784 179.357C106.166 179.357 103.548 179.318 100.891 179.357C99.4663 179.395 98.9273 178.702 98.9273 177.393C98.8888 171.232 98.8888 165.111 98.9273 158.95C98.9273 158.373 99.0428 157.795 99.5049 157.372C102.239 159.797 104.934 162.184 107.667 164.61C108.245 165.149 108.707 165.765 109.477 165.996Z" fill="#FEFEFE"/>
<path d="M193.413 305.991C193.451 315.733 193.451 325.474 193.49 335.215C193.49 344.571 193.528 353.927 193.451 363.283C193.451 364.823 193.913 365.247 195.415 365.17C197.956 365.054 200.536 365.131 203.115 365.131C203.115 365.401 203.115 365.67 203.077 365.94C201.421 367.018 199.573 366.479 197.84 366.517C193.913 366.594 194.067 366.248 194.067 370.252C194.067 380.301 194.067 390.312 194.067 400.361C194.067 403.287 194.183 403.326 197.07 403.403C198.457 403.441 199.881 403.056 201.19 403.903C201.421 404.211 201.267 404.481 201.152 404.75C199.727 405.828 198.072 405.289 196.493 405.366C194.26 405.482 194.067 405.559 194.067 407.792C194.029 413.76 194.067 419.728 194.067 425.657C194.067 427.005 193.99 428.352 193.336 429.585C192.951 430.278 192.45 431.048 191.565 430.701C190.602 430.316 191.18 429.469 191.411 428.891C191.95 427.351 192.104 425.773 192.104 424.156C192.104 415.3 192.104 406.483 192.104 397.627C192.104 395.125 191.988 395.009 189.524 394.971C185.866 394.971 182.208 394.971 178.551 394.971C177.627 394.971 176.587 395.163 175.894 394.239C176.01 393.931 176.087 393.623 176.202 393.315C176.934 392.507 177.935 392.622 178.897 392.622C182.401 392.584 185.943 392.622 189.447 392.622C191.911 392.622 192.065 392.468 192.065 390.004C192.104 381.957 192.065 373.871 192.065 365.824C192.065 349.576 192.104 333.328 192.027 317.042C192.027 314.616 192.566 312.229 192.373 309.803C192.604 308.494 192.874 307.185 193.105 305.876C193.182 305.914 193.297 305.914 193.413 305.991Z" fill="#5882AF"/>
<path d="M50.7607 358.278C51.1843 357.585 51.0303 356.776 51.0303 356.006C51.0303 333.136 51.0303 310.265 51.0303 287.433C51.0303 281.619 54.1105 278.539 59.9243 278.578C76.7114 278.578 93.4985 278.616 110.286 278.616C110.286 278.886 110.324 279.155 110.324 279.425C93.6525 279.425 77.0195 279.425 60.3479 279.425C54.534 279.425 51.8773 282.081 51.8773 287.857C51.8773 311.497 51.8773 335.138 51.8773 358.74C51.8773 359.395 51.8388 360.011 51.8003 360.665C51.4538 359.857 51.1073 359.048 50.7607 358.278Z" fill="#5983AF"/>
<path d="M99.5047 157.41C99.4662 164.11 99.4662 170.809 99.3892 177.508C99.3892 178.625 99.7742 178.933 100.852 178.933C103.971 178.895 107.09 178.972 110.208 178.972C110.247 179.241 110.247 179.511 110.285 179.819C106.974 179.819 103.663 179.742 100.352 179.857C98.6961 179.934 98.3496 179.318 98.3496 177.778C98.4266 170.655 98.3881 163.494 98.3881 156.371C98.8501 156.602 99.2737 156.91 99.5047 157.41Z" fill="#7194BA"/>
<path d="M365.404 386.808C364.711 386.847 363.979 386.885 363.286 386.885C341.955 386.885 320.587 386.885 299.256 386.924C297.408 386.924 296.792 386.616 296.792 384.575C296.869 340.605 296.869 296.674 296.792 252.704C296.792 250.933 297.292 250.509 299.025 250.509C312.154 250.586 325.284 250.548 338.452 250.548C339.222 250.548 339.992 250.509 340.762 250.471C344.227 251.741 347.846 252.011 351.504 251.664C352.967 252.55 353.275 254.244 354.161 255.515C354.584 256.131 354.854 256.901 355.316 257.517C356.625 259.288 358.088 259.673 360.167 258.787C360.899 258.479 361.553 257.825 362.477 258.171C360.552 269.914 358.627 281.658 356.702 293.401C354.315 308.032 351.889 322.663 349.502 337.332C348.886 341.067 349.618 344.571 350.927 348.036C355.662 360.665 360.398 373.255 365.134 385.884C365.25 386.192 365.327 386.5 365.404 386.808Z" fill="#FEFEFE"/>
<path d="M362.478 258.21C357.126 261.252 355.509 259.75 353.43 255.207C352.891 254.013 352.159 252.858 351.505 251.703C345.113 239.652 338.722 227.639 332.33 215.588C331.522 214.048 330.675 212.546 329.905 211.006C328.673 208.503 329.289 206.54 331.753 205.192C338.221 201.688 344.728 198.261 351.235 194.796C351.774 194.488 352.467 194.373 352.737 193.68C353.43 193.025 354.431 192.756 354.854 191.793C355.432 191.485 356.163 191.909 356.664 191.37C359.398 190.022 362.054 188.52 364.903 187.442C365.904 187.404 366.136 188.674 367.06 188.713C369.832 194.026 372.604 199.34 375.376 204.614C377.417 208.465 379.496 212.238 381.537 216.088C378.495 216.666 375.453 216.358 372.411 216.242C366.829 216.05 362.632 218.514 359.167 222.595C358.666 223.789 357.164 223.673 356.433 224.559C354.277 225.791 352.159 227.061 350.003 228.332C348.309 229.333 347.385 230.835 347.077 232.798C347 233.299 347 233.684 347.539 233.915C347.539 234.415 347.115 234.916 347.616 235.378C347.577 236.572 348.232 237.534 348.501 238.651C348.501 239.228 349.002 239.498 349.194 239.998C350.811 243.463 354.546 245.081 358.55 243.771C369.293 240.268 379.996 236.649 390.7 233.068C390.893 234.646 392.048 235.801 392.664 237.188C393.857 239.844 393.203 241.846 390.585 243.232C387.235 245.042 383.731 246.582 380.574 248.777C374.414 251.51 368.484 254.937 362.478 258.21Z" fill="#202B6D"/>
<path d="M433.052 387.848C435.132 395.933 437.172 404.019 439.251 412.104C438.943 412.643 438.404 412.874 437.904 413.144C433.669 415.608 430.55 418.996 429.125 423.809C428.933 424.502 428.625 425.118 428.163 425.657C424.081 428.121 420 430.586 415.957 433.088C414.956 433.704 414.841 433.242 414.61 432.395C413.455 427.813 412.261 423.27 411.106 418.727C409.027 413.105 406.948 407.446 404.869 401.824C404.753 401.516 404.676 401.208 404.599 400.9C405.138 399.745 406.216 400.092 407.102 400.092C411.876 399.976 411.376 400.746 411.414 395.779C411.414 393.816 411.376 391.814 411.414 389.85C411.453 387.848 411.915 387.386 413.955 387.386C419.654 387.347 425.352 387.386 431.012 387.386C431.782 387.347 432.475 387.347 433.052 387.848Z" fill="#FEFEFE"/>
<path d="M370.293 399.822C362.362 399.822 354.43 399.822 346.499 399.899C345.19 399.899 344.882 399.476 344.92 398.244C344.997 395.318 344.997 392.353 344.92 389.427C344.882 388.118 345.382 387.848 346.576 387.848C352.967 387.887 359.359 387.848 365.75 387.848C367.29 391.814 368.792 395.818 370.293 399.822Z" fill="#FEFEFE"/>
<path d="M404.252 399.861C402.558 395.933 401.095 391.929 399.709 387.886C400.171 387.347 400.826 387.309 401.48 387.309C404.098 387.309 406.716 387.27 409.335 387.309C411.221 387.347 411.568 387.694 411.568 389.58C411.606 392.468 411.529 395.317 411.606 398.205C411.645 399.707 411.029 400.323 409.566 400.169C407.794 400.053 405.985 400.592 404.252 399.861Z" fill="#FEFEFE"/>
<path d="M373.258 407.6C372.334 408.216 371.256 407.869 370.294 407.869C367.021 407.908 363.787 407.831 360.514 407.908C359.244 407.946 358.589 407.677 358.743 406.252C358.935 404.481 358.011 402.209 359.089 401.054C360.168 399.899 362.478 400.746 364.249 400.669C366.366 400.592 368.446 400.592 370.563 400.554C371.487 402.941 372.373 405.289 373.258 407.6Z" fill="#FEFEFE"/>
<path d="M404.252 399.861C406.1 399.861 407.948 399.784 409.797 399.861C410.759 399.899 411.144 399.591 411.144 398.552C411.106 395.433 411.067 392.314 411.144 389.196C411.183 388.002 410.644 387.848 409.643 387.848C406.331 387.887 403.02 387.887 399.709 387.887C399.593 387.54 399.439 387.194 399.324 386.847C410.451 386.847 421.617 386.809 432.744 386.809C432.86 387.155 432.937 387.502 433.052 387.848C426.661 387.848 420.269 387.925 413.878 387.81C412.338 387.771 411.953 388.272 411.991 389.735C412.107 392.815 411.953 395.857 412.068 398.937C412.107 400.246 411.76 400.747 410.374 400.708C408.487 400.669 406.562 400.438 404.637 400.862C404.252 400.631 404.291 400.246 404.252 399.861Z" fill="#678DB5"/>
<path d="M175.817 394.316C180.822 394.316 185.827 394.393 190.833 394.316C192.296 394.278 192.642 394.701 192.642 396.164C192.565 406.021 192.604 415.916 192.642 425.773C192.642 427.467 192.026 428.969 191.333 430.47C192.45 430.817 192.488 429.97 192.758 429.469C193.412 428.199 193.489 426.774 193.489 425.349C193.489 419.073 193.528 412.798 193.451 406.522C193.451 405.174 193.797 404.712 195.145 404.789C197.109 404.905 199.111 404.828 201.113 404.828C201.19 409.14 200.535 413.414 200.343 417.687C200.304 418.38 200.343 419.073 200.343 419.766C199.881 424.464 199.457 429.2 198.918 433.897C198.841 434.744 199.149 435.129 199.804 435.591C203.462 438.055 205.079 441.713 205.579 445.948C205.656 446.487 205.695 446.988 204.925 447.026C204.116 447.103 204.193 446.487 204.155 446.025C203.616 441.02 200.959 437.709 196.608 435.244C187.791 430.201 179.128 424.926 170.234 419.997C172.082 411.411 173.969 402.864 175.817 394.316Z" fill="#FEFEFE"/>
<path d="M201.152 403.98C199.034 403.98 196.916 403.942 194.799 403.98C193.836 404.019 193.451 403.634 193.451 402.633C193.49 390.851 193.49 379.069 193.451 367.288C193.451 366.286 193.798 365.94 194.76 365.978C197.533 366.017 200.266 365.978 203.039 365.978C203.039 374.064 202.422 382.149 202.076 390.235C201.922 394.047 201.652 397.859 201.46 401.709C201.421 402.479 201.537 403.249 201.152 403.98Z" fill="#FEFEFE"/>
<path d="M439.521 412.951C439.983 414.877 440.445 416.763 440.907 418.688C440.098 418.65 439.444 419.073 438.789 419.458C435.747 421.306 432.667 423.116 429.587 424.926C428.894 424.849 428.971 424.387 429.087 423.963C430.704 418.919 433.784 415.108 438.712 412.99C439.02 412.836 439.29 412.874 439.521 412.951Z" fill="#FDFDFD"/>
<path d="M439.521 412.952C435.016 414.954 431.782 418.226 429.934 422.847C429.664 423.501 429.048 424.156 429.626 424.926C429.164 425.195 428.663 425.426 428.201 425.696C429.549 419.266 433.245 414.761 439.251 412.143C439.328 412.374 439.444 412.644 439.521 412.952Z" fill="#6289B3"/>
<path d="M141.703 394.393C140.009 402.979 138.315 411.565 136.621 420.151C135.235 424.117 134.542 428.237 133.387 432.241C133.271 432.588 133.117 432.934 133.002 433.281C121.99 433.242 110.978 433.242 99.9666 433.204C100.082 428.237 99.1966 423.501 96.3474 419.343C91.8426 412.797 85.5282 409.679 77.5967 409.602C74.6705 409.563 71.7058 409.91 68.8181 409.371C67.201 404.75 65.6224 400.13 64.0053 395.51C63.8898 395.163 63.8128 394.778 63.6973 394.432C64.3518 393.777 65.2374 393.893 66.0459 393.893C90.4565 393.893 114.867 393.893 139.316 393.893C140.163 393.893 141.049 393.739 141.703 394.393Z" fill="#FEFEFE"/>
<path d="M179.205 448.335C179.475 449.221 179.051 449.452 178.243 449.452C172.236 449.452 166.23 449.413 160.224 449.452C159.376 449.452 159.03 449.144 159.184 448.335C165.845 448.374 172.506 448.335 179.205 448.335Z" fill="#FEFEFE"/>
<path d="M51.8774 409.756C51.8774 405.636 51.8774 401.478 51.8389 397.358C51.8389 394.355 51.8389 394.355 54.8805 394.355C56.8827 399.322 58.6153 404.404 60.2709 409.448C57.4987 409.563 54.688 409.679 51.8774 409.756Z" fill="#FDFDFD"/>
<path d="M62.1193 394.471C63.8519 399.36 65.5845 404.25 67.3556 409.14C65.5845 410.218 63.6979 409.564 61.8883 409.487C60.2712 404.828 58.6927 400.207 57.0756 395.549C56.9601 395.202 56.8831 394.817 56.7676 394.432C58.5002 393.508 60.3097 393.624 62.1193 394.471Z" fill="#FDFDFD"/>
<path d="M80.9854 130.535C86.3758 130.535 91.1886 135.502 90.7265 140.508C90.611 141.701 90.2645 142.779 89.533 143.703C89.1479 144.165 89.2249 145.551 88.0698 144.858C87.2613 144.396 86.4142 143.934 87.1073 142.471C88.5319 139.429 87.3768 136.157 84.6046 134.463C82.1019 132.961 78.6752 133.462 76.7116 135.656C74.6324 137.966 74.4784 141.393 76.6346 143.896C77.6742 145.128 76.8271 145.744 76.3265 146.514C61.5415 169.924 46.7566 193.333 31.9716 216.704C26.3887 225.56 20.7673 234.415 15.1844 243.309C14.7224 244.041 14.3759 244.58 13.2593 244.31C9.44755 243.463 5.98231 245.889 5.59728 249.547C5.17375 253.436 7.83044 256.477 11.8347 256.67C12.5278 256.708 13.1053 256.554 13.4518 257.517C14.2219 259.673 14.1449 259.865 11.8347 259.75C4.21119 259.403 0.206928 251.934 4.2112 245.581C27.4283 208.696 50.6453 171.81 73.8624 134.886C75.5565 132.268 77.7127 130.535 80.9854 130.535Z" fill="#FEFEFE"/>
<path d="M87.5688 146.822C87.4148 147.092 87.1838 147.477 86.9528 147.862C67.4705 178.818 48.0268 209.735 28.5445 240.691C25.4643 245.62 22.3457 250.548 19.227 255.438C18.5724 256.477 17.9564 257.555 16.9168 258.21C16.4548 258.479 15.7617 259.48 15.4152 258.595C15.0687 257.748 13.6826 256.708 15.2612 255.63C17.6098 254.013 18.4569 251.741 17.9564 248.969C17.8024 248.199 17.6099 247.352 17.0323 246.89C15.3382 245.581 16.1467 244.426 16.9938 243.117C37.2461 211.083 57.4984 179.049 77.7122 147.015C78.3282 146.052 78.8288 145.513 80.0608 145.937C81.6779 146.514 83.218 146.014 84.6811 145.243C85.5282 144.781 87.4918 145.744 87.5688 146.822Z" fill="#FEFEFE"/>
<path d="M51.1075 383.651C51.069 389.812 51.0305 395.972 51.069 402.094C51.069 403.634 50.6455 404.019 49.1439 404.019C43.638 403.942 38.1322 403.942 32.5878 404.019C31.2017 404.019 30.7012 403.711 30.7012 402.209C30.7397 390.659 30.7397 379.146 30.7012 367.596C30.7012 366.325 31.0477 365.979 32.3183 365.979C36.4766 366.056 40.6348 366.017 44.8316 366.017C47.0648 371.831 49.2209 377.683 51.1075 383.651Z" fill="#FEFEFE"/>
<path d="M46.3716 365.247C43.9074 359.279 41.9438 353.157 39.7876 347.112C29.7385 318.89 19.7278 290.706 9.67867 262.484C9.52466 262.022 9.37066 261.56 9.13965 260.944C10.8723 261.175 12.4124 261.521 14.0295 261.136C15.0305 260.867 14.9535 261.906 15.1075 262.368C18.3802 271.455 21.576 280.541 24.8102 289.628C33.3192 313.577 41.8282 337.525 50.2988 361.474C50.6068 362.321 50.8378 363.168 51.0688 364.015C51.3384 364.862 51.1459 365.594 50.1448 365.671C48.9127 365.786 47.5651 366.056 46.3716 365.247Z" fill="#FEFEFE"/>
<path d="M52.1083 366.402C55.2655 375.257 58.3842 384.113 61.5414 392.93C60.3479 394.085 58.1917 394.239 56.1896 393.238C54.7265 389.003 53.2634 384.768 51.8003 380.571C50.7992 376.259 51.3767 371.869 51.3382 367.518C51.3382 367.056 51.4152 366.517 52.1083 366.402Z" fill="#FDFDFD"/>
<path d="M141.704 394.393C122.799 394.393 103.933 394.355 85.0279 394.355C77.905 394.355 70.8205 394.393 63.6975 394.432C63.351 394.124 63.3125 393.777 63.3125 393.354C84.3734 393.354 105.396 393.392 126.457 393.392C131.577 393.392 136.698 393.431 141.819 393.431C141.819 393.739 141.781 394.085 141.704 394.393Z" fill="#5881AE"/>
<path d="M50.722 377.953C49.3744 374.102 47.9882 370.214 46.6406 366.363C47.4492 365.67 50.1059 365.324 50.876 365.824C51.2225 366.055 51.3765 366.402 51.3765 366.787C51.415 370.252 51.4535 373.679 51.3765 377.144C51.3765 377.529 51.184 377.876 50.722 377.953Z" fill="#FDFDFD"/>
<path d="M50.7224 377.953C51.4154 375.989 50.8764 373.91 51.0304 371.908C51.1074 371.022 51.0304 370.137 51.0304 369.213C51.0304 365.709 50.1448 365.131 46.6411 366.364C46.2176 366.056 46.4486 365.632 46.3716 365.247C47.5267 365.208 48.6817 365.131 49.8368 365.208C50.7994 365.285 51.0689 364.823 51.1074 364.015C51.6464 364.746 51.839 365.593 52.07 366.441C51.5309 369.713 51.9545 372.986 51.8389 376.259C51.8004 377.722 51.8005 379.146 51.762 380.609C51.4539 379.724 51.0689 378.838 50.7224 377.953Z" fill="#5881AE"/>
<path d="M54.5721 393.315C51.8769 393.508 51.7999 393.508 51.8769 390.851C51.9154 389.349 51.4919 387.848 52.1464 386.385C52.955 388.695 53.7635 391.005 54.5721 393.315Z" fill="#F3F5F7"/>
<path d="M56.1895 393.277C57.9606 393.277 59.8088 393.854 61.5415 392.969C62.0036 393.354 61.888 393.97 62.1191 394.47C60.3094 394.47 58.5382 394.47 56.7285 394.47C56.305 394.162 56.3435 393.662 56.1895 393.277Z" fill="#5881AC"/>
<path d="M355.046 191.754C355.008 193.295 353.93 193.526 352.698 193.641C349.078 183.399 345.498 173.119 341.878 162.878C343.958 160.991 346.614 160.529 349.194 159.913C350.272 159.643 350.657 160.798 350.927 161.646C352.005 164.918 353.275 168.114 354.353 171.425C355.508 174.929 356.663 178.471 357.895 181.975C358.28 183.053 358.357 183.938 357.202 184.593C354.969 185.902 354.276 187.827 355.123 190.33C355.277 190.792 355.431 191.292 355.046 191.754Z" fill="black"/>
<path d="M355.046 191.754C354.892 191.215 354.738 190.638 354.584 190.099C353.737 187.327 354.43 185.324 357.01 184.015C357.895 183.553 357.857 183.207 357.626 182.437C355.162 175.352 352.774 168.229 350.349 161.106C350.118 160.375 349.887 159.874 348.886 160.298C346.575 161.222 344.227 161.992 341.917 162.839C340.492 163.109 339.53 163.956 338.798 165.149C338.413 165.496 338.028 165.457 337.643 165.149C336.95 160.914 335.833 156.756 334.64 152.559C336.642 153.483 338.374 154.522 340.454 154.792C344.227 155.254 347.692 154.176 351.042 152.79C352.197 152.289 352.813 152.251 353.313 153.56C353.93 155.1 354.738 156.563 355.47 158.065C354.199 158.758 352.12 158.527 351.658 159.797C351.273 160.875 352.312 162.415 352.736 163.763C354.777 169.731 356.856 175.699 358.858 181.667C359.204 182.668 359.435 183.207 360.745 182.86C363.17 182.283 365.134 183.438 366.096 185.787C366.481 186.711 366.751 187.712 367.097 188.674C365.788 189.444 365.634 188.135 365.057 187.558C364.941 187.519 364.826 187.442 364.749 187.327C362.593 184.208 361.977 184.054 358.357 185.671C356.663 186.441 356.086 187.481 356.394 189.329C356.509 190.137 357.087 190.869 356.663 191.716C356.163 192.409 355.624 192.717 355.046 191.754Z" fill="#FEFEFE"/>
<path d="M337.605 165.188C337.99 165.188 338.375 165.188 338.76 165.188C340.339 171.156 341.956 177.162 343.534 183.13C343.611 183.438 343.765 183.746 343.804 184.054C343.881 184.555 344.035 185.171 343.38 185.325C342.726 185.479 342.495 184.901 342.379 184.401C341.84 182.36 341.301 180.319 340.762 178.279C339.646 174.159 338.491 170.039 337.335 165.919C337.412 165.727 337.528 165.457 337.605 165.188Z" fill="#020304"/>
<path d="M324.668 146.244C325.823 147.553 327.209 148.516 328.865 149.055C329.134 150.826 329.327 152.597 329.712 154.33C329.904 155.215 329.75 155.639 328.865 155.87C327.941 156.101 327.248 155.986 326.978 154.907C326.208 152.02 325.438 149.132 324.668 146.244Z" fill="#FEFCFC"/>
<path d="M340.877 131.883C343.649 131.845 346.037 134.232 346.037 136.965C346.037 139.661 343.765 141.971 341.07 142.048C338.259 142.125 335.91 139.853 335.833 137.042C335.756 134.309 338.105 131.922 340.877 131.883Z" fill="#FC9993"/>
<path d="M326.669 138.929C328.903 137.235 330.866 137.004 332.83 138.197C334.562 139.237 335.602 141.355 335.256 143.28C334.87 145.551 333.523 146.937 331.097 147.438C329.942 146.629 329.403 145.513 329.365 144.127C329.442 143.896 329.596 143.703 329.788 143.511C330.096 143.203 330.52 142.895 330.173 142.394C329.904 142.009 329.519 142.086 329.134 142.163C328.903 142.202 328.633 142.279 328.364 142.202C327.401 141.316 327.208 140.046 326.669 138.929Z" fill="#FC9993"/>
<path d="M329.558 144.011C329.827 145.282 330.636 146.283 331.136 147.438C328.634 147.746 326.863 146.937 325.823 145.051C324.706 143.01 324.976 141.047 326.67 138.929C327.902 139.661 327.864 141.085 328.557 142.125C328.98 142.702 329.404 143.28 329.558 144.011Z" fill="#FDFDFD"/>
<path d="M317.352 446.834C307.649 446.834 299.679 438.941 299.679 429.277C299.641 419.497 307.611 411.604 317.468 411.642C327.247 411.681 335.025 419.535 335.025 429.277C334.986 439.018 327.132 446.795 317.352 446.834Z" fill="#FEFEFE"/>
<path d="M321.857 399.399C321.857 402.787 321.819 406.175 321.896 409.563C321.934 410.757 321.549 411.219 320.356 410.911C318.392 410.449 316.39 410.487 314.465 410.911C313.194 411.18 312.963 410.641 312.963 409.486C313.002 402.748 313.002 396.049 312.963 389.311C312.963 388.117 313.348 387.732 314.503 387.771C316.467 387.848 318.469 387.848 320.471 387.771C321.742 387.694 321.973 388.233 321.934 389.349C321.819 392.738 321.857 396.087 321.857 399.399Z" fill="#FEFEFE"/>
<path d="M75.2096 449.491C72.3989 449.491 69.5882 449.529 66.739 449.491C66.1999 449.491 65.2759 449.876 65.2759 448.836C65.2759 447.95 66.1229 448.22 66.6235 448.22C72.3989 448.22 78.1358 448.22 83.9111 448.22C84.4117 448.22 85.2587 447.95 85.2972 448.797C85.3357 449.876 84.3732 449.452 83.8727 449.452C80.985 449.491 78.0973 449.491 75.2096 449.491Z" fill="#F2F3F6"/>
<path d="M349.233 239.883C348.309 239.806 347.654 239.575 348.54 238.535C352.352 237.264 356.125 235.955 359.937 234.685C360.514 234.492 361.246 233.953 361.554 234.839C361.862 235.686 361.015 235.801 360.437 236.032C356.702 237.303 352.968 238.612 349.233 239.883Z" fill="#050303"/>
<path d="M356.471 224.52C356.625 222.788 358.319 223.25 359.205 222.557C362.208 221.555 365.211 220.516 368.253 219.553C368.792 219.361 369.6 218.86 369.947 219.707C370.37 220.747 369.292 220.785 368.715 220.978C365.25 222.21 361.746 223.365 358.242 224.559C357.665 224.713 357.087 225.136 356.471 224.52Z" fill="#050303"/>
<path d="M347.654 235.262C347.23 235.301 346.768 235.455 346.614 234.877C346.383 234.03 347.23 234.184 347.577 233.838C351.196 232.606 354.777 231.373 358.396 230.141C358.973 229.949 359.666 229.41 360.013 230.334C360.321 231.219 359.435 231.296 358.858 231.489C355.123 232.76 351.388 234.03 347.654 235.262Z" fill="#050303"/>
<path d="M197.995 107.164C197.956 105.47 198.226 103.776 197.725 102.121C197.687 101.081 197.648 100.041 197.61 98.9634C197.61 98.5783 197.61 98.1933 197.61 97.8468C198.919 91.6479 201.961 88.9527 208.275 88.1826C215.437 87.2971 222.598 86.2575 229.759 85.3335C230.337 85.2564 230.876 85.2179 231.569 85.1794C231.415 85.757 231.261 86.142 231.146 86.5655C230.799 87.9516 229.99 89.0682 231.762 90.5698C234.033 92.4949 233.34 94.8821 230.722 96.4607C226.756 95.1516 222.713 93.881 218.786 92.4564C217.516 91.9944 216.861 92.2639 216.014 93.2265C211.047 98.8478 205.31 103.622 198.996 107.703C198.341 108.05 197.956 108.242 197.995 107.164Z" fill="black"/>
<path d="M174.508 55.9175C172.506 59.3442 170.542 62.7325 168.502 66.1207C168.194 66.6212 168.001 67.7763 167.077 67.2758C166.037 66.6982 166.961 65.9282 167.269 65.3506C169.156 61.9624 171.081 58.5742 173.006 55.186C173.892 54.6854 174.431 54.801 174.508 55.9175Z" fill="#070404"/>
<path d="M177.203 74.5142C175.547 77.3634 173.892 80.2511 172.159 83.0618C171.851 83.6008 171.659 84.6789 170.734 84.1783C169.772 83.6778 170.542 82.9462 170.85 82.4072C172.621 79.2885 174.392 76.2083 176.202 73.0896C176.548 72.5121 176.818 71.7805 177.665 71.665C178.782 72.8201 177.28 73.5517 177.203 74.5142Z" fill="#060404"/>
<path d="M178.512 57.5731C178.589 58.8437 177.742 59.7292 177.203 60.6918C175.702 63.3485 174.161 66.0051 172.583 68.6233C172.275 69.1624 172.044 70.2019 171.081 69.6244C170.273 69.1239 171.004 68.4693 171.274 67.9688C173.237 64.465 175.24 60.9613 177.203 57.4961C177.665 57.3421 178.127 57.1496 178.512 57.5731Z" fill="#060404"/>
<path d="M232.185 105.278C231.646 105.701 231.145 106.202 230.375 105.663C229.875 105.316 229.798 104.816 229.99 104.315C230.298 103.314 231.107 103.468 231.877 103.622C232.185 104.123 232.416 104.662 232.185 105.278Z" fill="#0E0A09"/>
<path d="M219.44 105.162C219.248 105.817 218.901 106.356 218.131 106.279C217.438 106.202 216.976 105.701 217.014 105.008C217.053 104.315 217.553 103.853 218.285 103.93C219.055 103.969 219.363 104.469 219.44 105.162Z" fill="#190F0E"/>
<path d="M192.334 309.842C192.873 310.381 192.604 311.074 192.604 311.651C192.604 338.18 192.604 364.708 192.642 391.275C192.642 392.93 192.257 393.469 190.525 393.431C185.712 393.315 180.899 393.392 176.086 393.392C177.396 386.77 178.743 380.109 180.014 373.486C183.71 354.351 187.368 335.215 191.064 316.079C191.526 314 191.911 311.921 192.334 309.842Z" fill="#FEFEFE"/>
<path d="M188.1 244.772C190.102 244.772 191.565 246.274 191.603 248.276C191.603 250.278 190.14 251.78 188.138 251.818C186.059 251.857 184.48 250.24 184.519 248.199C184.557 246.197 186.059 244.772 188.1 244.772Z" fill="#212C6D"/>
<path d="M221.019 245.003C222.944 244.965 224.561 246.505 224.638 248.469C224.677 250.471 223.214 252.049 221.288 252.126C219.248 252.203 217.592 250.625 217.592 248.584C217.515 246.582 219.017 245.042 221.019 245.003Z" fill="#212C6D"/>
<path d="M356.663 191.716C356.432 190.984 356.124 190.291 355.932 189.56C355.316 187.442 356.086 185.941 358.126 185.171C358.665 184.978 359.204 184.785 359.743 184.593C362.785 183.553 364.171 184.323 365.057 187.519C364.71 188.79 363.44 188.289 362.67 188.751C360.745 189.868 358.665 190.753 356.663 191.716Z" fill="#010101"/>
<path d="M342.11 136.965C342.033 137.774 341.57 138.236 340.877 138.198C340.146 138.159 339.684 137.62 339.761 136.888C339.799 136.272 340.223 135.849 340.916 135.849C341.647 135.849 342.033 136.272 342.11 136.965Z" fill="#110A0A"/>
<path d="M329.558 144.011C328.865 143.588 328.364 143.049 328.518 142.125C329.211 141.47 330.058 140.97 330.674 142.009C331.406 143.164 330.559 143.703 329.558 144.011Z" fill="#1A1312"/>
<path d="M317.314 437.17C312.963 437.17 309.305 433.55 309.305 429.238C309.305 424.926 312.924 421.307 317.275 421.307C321.78 421.307 325.399 424.887 325.361 429.315C325.322 433.628 321.703 437.17 317.314 437.17Z" fill="#5D85B1"/>
<path d="M317.313 422.154C321.202 422.115 324.398 425.311 324.398 429.2C324.398 433.088 321.279 436.284 317.352 436.323C313.463 436.361 310.306 433.204 310.268 429.238C310.306 425.272 313.348 422.154 317.313 422.154Z" fill="#FEFEFE"/>
<defs>
<linearGradient id="paint0_linear_49_370" x1="217.699" y1="305.915" x2="217.699" y2="420.45" gradientUnits="userSpaceOnUse">
<stop stop-color="#FF0000"/>
<stop offset="1" stop-color="#FF9900"/>
</linearGradient>
<linearGradient id="paint1_linear_49_370" x1="157.748" y1="305.799" x2="157.748" y2="420.151" gradientUnits="userSpaceOnUse">
<stop stop-color="#CC0000"/>
<stop offset="1" stop-color="#FEA24D"/>
</linearGradient>
</defs>
</svg>
