<svg width="443" height="369" viewBox="0 0 443 369" fill="none" xmlns="http://www.w3.org/2000/svg">
<path d="M43.7701 222.909C46.112 200.785 54.6095 202.874 62.868 214.895C71.1264 226.916 72.1586 234.43 72.1586 234.43C77.7283 251.901 76.4872 258.694 73.1911 283.517C68.8197 307.561 67.5136 342.121 69.0619 352.64C70.6102 363.159 59.771 362.658 56.6741 357.148C53.5771 351.638 51.18 324.785 52.5448 302.551C54.6094 295.037 43.7701 222.909 43.7701 222.909Z" fill="#5C62FF"/>
<path d="M12.8003 231.925C14.8649 219.904 29.8335 213.392 37.0598 230.923C43.7149 259.481 43.2537 315.574 44.286 323.087C45.3183 330.601 49.4476 344.125 49.4476 344.125C53.5768 357.148 43.7698 358.651 37.5759 349.134C37.5759 349.134 22.0912 314.071 17.4457 296.54C12.8003 279.009 10.7357 243.947 12.8003 231.925Z" fill="#5C62FF"/>
<path d="M43.7701 222.909C46.112 200.785 54.6095 202.874 62.868 214.895C71.1264 226.916 72.1586 234.43 72.1586 234.43C77.7283 251.901 76.4872 258.694 73.1911 283.517C68.8197 307.561 67.5136 342.121 69.0619 352.64C70.6102 363.159 59.771 362.658 56.6741 357.148C53.5771 351.638 51.18 324.785 52.5448 302.551C54.6094 295.037 43.7701 222.909 43.7701 222.909Z" stroke="#5C62FF"/>
<path d="M12.8003 231.925C14.8649 219.904 29.8335 213.392 37.0598 230.923C43.7149 259.481 43.2537 315.574 44.286 323.087C45.3183 330.601 49.4476 344.125 49.4476 344.125C53.5768 357.148 43.7698 358.651 37.5759 349.134C37.5759 349.134 22.0912 314.071 17.4457 296.54C12.8003 279.009 10.7357 243.947 12.8003 231.925Z" stroke="#5C62FF"/>
<path d="M116.334 98.7003C121.041 72.2322 138.824 66.7388 147.193 69.7352C155.562 72.7316 152.424 88.213 152.424 88.213C152.424 93.7063 147.716 106.691 147.716 106.691C146.67 121.173 138.302 126.667 138.302 126.667C124.18 138.153 115.811 123.171 115.811 123.171C113.719 116.679 116.334 98.7003 116.334 98.7003Z" fill="#D50D00" stroke="#D50D00"/>
<path d="M14.3343 170.7C19.0414 144.232 36.8244 138.739 45.1932 141.735C53.562 144.732 50.4235 160.213 50.4235 160.213C50.4235 165.706 45.7162 178.691 45.7162 178.691C44.6701 193.173 36.3016 198.667 36.3016 198.667C22.1796 210.153 13.8112 195.171 13.8112 195.171C11.7191 188.679 14.3343 170.7 14.3343 170.7Z" fill="#D50D00" stroke="#D50D00"/>
<path d="M129.569 16.6982C121.759 -1.95391 105.083 1.14185 98.831 4.65458C92.5791 8.1673 95.8608 53.4345 95.8608 53.4345C98.4642 89.757 107.316 95.1563 107.316 95.1563C113.043 102.028 118.77 99.5739 118.77 99.5739C129.705 91.7204 122.936 77.9767 122.936 77.9767C120.853 73.0683 123.977 56.3796 123.977 56.3796C132.308 23.9838 129.569 16.6982 129.569 16.6982Z" fill="#F17415" stroke="#F17415"/>
<path d="M298.569 19.6982C290.759 1.04609 274.083 4.14185 267.831 7.65458C261.579 11.1673 264.861 56.4345 264.861 56.4345C267.464 92.757 276.316 98.1563 276.316 98.1563C282.043 105.028 287.77 102.574 287.77 102.574C298.705 94.7204 291.936 80.9767 291.936 80.9767C289.853 76.0683 292.977 59.3796 292.977 59.3796C301.308 26.9838 298.569 19.6982 298.569 19.6982Z" fill="#F17415" stroke="#F17415"/>
<path d="M101.293 122.766C107.485 112.246 114.708 118.758 116.772 121.764C118.836 124.769 120.384 145.308 120.384 145.308C125.028 160.336 143.087 184.881 143.087 184.881C151.342 193.397 146.698 212.934 146.698 212.934C135.863 255.513 128.124 221.95 126.06 212.433C123.996 202.915 101.293 146.81 101.293 146.81C96.1335 130.78 101.293 122.766 101.293 122.766Z" fill="#C789F3"/>
<path d="M174.77 123.909C177.112 101.785 185.61 103.874 193.868 115.895C202.126 127.916 203.159 135.43 203.159 135.43C208.728 152.901 207.487 159.694 204.191 184.517C199.82 208.561 198.514 243.121 200.062 253.64C201.61 264.159 190.771 263.658 187.674 258.148C184.577 252.638 182.18 225.785 183.545 203.551C185.609 196.037 174.77 123.909 174.77 123.909Z" fill="#5C62FF"/>
<path d="M143.8 132.925C145.865 120.904 160.834 114.392 168.06 131.923C174.715 160.481 174.254 216.574 175.286 224.087C176.318 231.601 180.448 245.125 180.448 245.125C184.577 258.148 174.77 259.651 168.576 250.134C168.576 250.134 153.091 215.071 148.446 197.54C143.8 180.009 141.736 144.947 143.8 132.925Z" fill="#5C62FF"/>
<path d="M174.77 123.909C177.112 101.785 185.61 103.874 193.868 115.895C202.126 127.916 203.159 135.43 203.159 135.43C208.728 152.901 207.487 159.694 204.191 184.517C199.82 208.561 198.514 243.121 200.062 253.64C201.61 264.159 190.771 263.658 187.674 258.148C184.577 252.638 182.18 225.785 183.545 203.551C185.609 196.037 174.77 123.909 174.77 123.909Z" stroke="#5C62FF"/>
<path d="M143.8 132.925C145.865 120.904 160.834 114.392 168.06 131.923C174.715 160.481 174.254 216.574 175.286 224.087C176.318 231.601 180.448 245.125 180.448 245.125C184.577 258.148 174.77 259.651 168.576 250.134C168.576 250.134 153.091 215.071 148.446 197.54C143.8 180.009 141.736 144.947 143.8 132.925Z" stroke="#5C62FF"/>
<path d="M184.293 121.766C190.485 111.246 197.708 117.758 199.772 120.764C201.836 123.769 203.384 144.308 203.384 144.308C208.028 159.336 226.087 183.881 226.087 183.881C234.342 192.397 229.698 211.934 229.698 211.934C218.863 254.513 211.124 220.95 209.06 211.433C206.996 201.915 184.293 145.81 184.293 145.81C179.134 129.78 184.293 121.766 184.293 121.766Z" fill="#C789F3"/>
<path d="M225.595 281.631C228.186 271.653 226.113 233.736 226.631 230.743C227.149 227.75 230.776 221.763 236.994 230.743C236.994 230.743 244.247 251.198 245.802 256.686C247.356 262.174 248.911 279.136 247.356 290.112C245.802 301.088 240.621 318.549 236.476 327.031C232.331 335.512 230.776 341 221.45 341C212.124 341 214.196 321.044 214.196 321.044C216.269 295.6 223.004 291.609 225.595 281.631Z" fill="#C789F3" stroke="#C789F3"/>
<path d="M106.011 220.611C105.474 207.681 97.9692 215.141 97.9692 215.141C97.9692 215.141 91.5361 221.606 91 235.53C91 235.53 91.0001 280.287 92.6083 294.709C93.7266 298.714 92.6083 301.174 101.722 304.655C110.835 308.136 119.413 284.266 117.805 278.795C116.196 265.865 106.011 220.611 106.011 220.611Z" fill="#A189F3" stroke="#A189F3"/>
<path d="M70.2124 44.8568C63.9477 28.8662 52.9846 45.8562 52.9846 45.8562C52.9846 45.8562 45.1537 66.3442 44.1097 87.3319C43.0657 108.32 49.7479 149.296 52.4626 162.288C55.5949 177.279 64.0132 214.169 75.4329 179.778C86.8526 145.386 80.1314 115.815 79.0873 107.32C78.0431 98.8251 76.477 60.8474 70.2124 44.8568Z" fill="#A189F3" stroke="#A189F3"/>
<path d="M145.547 226.142C138.722 216.267 132.535 212.665 121.605 224.145C110.676 235.625 109.533 241.126 112.237 256.09C125.023 277.705 146.588 273.061 149.19 259.584C151.792 246.107 152.371 236.016 145.547 226.142Z" fill="#89A9F3" stroke="#89A9F3"/>
<path d="M134.547 308.142C127.722 298.267 121.535 294.665 110.605 306.145C99.6756 317.625 98.5335 323.126 101.237 338.09C114.023 359.705 135.588 355.061 138.19 341.584C140.792 328.107 141.371 318.016 134.547 308.142Z" fill="#89A9F3" stroke="#89A9F3"/>
<ellipse cx="226.5" cy="167.5" rx="37.5" ry="99.5" fill="#FEC744"/>
<path d="M61.88 185.182C58.2531 179.164 52.5535 172.143 45.8181 186.185C39.0826 200.226 52.5535 236.834 61.88 233.825C71.2064 230.816 65.5068 219.282 68.0975 214.267C70.6881 209.253 79.4962 208.25 78.9781 200.226C78.4599 192.202 65.5068 191.199 61.88 185.182Z" fill="#F3AC89" stroke="#F3AC89"/>
<path d="M230.12 12.1816C233.747 6.16386 239.446 -0.856792 246.182 13.1846C252.917 27.226 239.446 63.8339 230.12 60.825C220.794 57.8162 226.493 46.2822 223.903 41.2674C221.312 36.2526 212.504 35.2497 213.022 27.226C213.54 19.2023 226.493 18.1994 230.12 12.1816Z" fill="#F3AC89" stroke="#F3AC89"/>
<path d="M94.2467 120.023C91.2603 123.524 94.9552 122.153 91.9957 123.533C89.0362 124.912 77.9426 129.732 69.2343 120.437C60.5261 111.142 55.6113 92.6985 55.6113 92.6985C52.0957 79.9284 51.2479 59.7645 51.2479 59.7645C52.8263 51.297 42.5349 21.8294 42.5349 21.8294C40.8533 9.43438 49.3417 7.05874 49.3417 7.05874C58.6282 -0.257631 69.1255 12.9479 72.7399 17.9403C76.3542 22.9326 84.1298 47.7744 86.6454 52.4004C89.1611 57.0264 98.396 73.5124 107.107 91.8874C115.818 110.262 101.991 118.346 101.991 118.346C101.991 118.346 97.233 116.522 94.2467 120.023Z" fill="#F64506" stroke="#F64506"/>
<path d="M279.263 247.252C274.571 246.752 278.22 245.253 275.092 246.252C271.965 247.252 260.496 251.251 261.017 263.746C261.539 276.241 271.443 292.735 271.443 292.735C278.22 304.231 292.295 319.225 292.295 319.225C299.593 324.223 313.668 352.212 313.668 352.212C321.488 362.209 329.307 358.21 329.307 358.21C341.297 357.211 339.212 340.717 338.169 334.719C337.127 328.721 324.615 305.73 323.052 300.732C321.488 295.734 316.108 277.741 308.977 258.748C301.845 239.755 286.04 243.254 286.04 243.254C286.04 243.254 283.954 247.752 279.263 247.252Z" fill="#F64506" stroke="#F64506"/>
<path d="M148.263 256.252C143.571 255.752 147.22 254.253 144.092 255.252C140.965 256.252 129.496 260.251 130.017 272.746C130.539 285.241 140.443 301.735 140.443 301.735C147.22 313.231 161.295 328.225 161.295 328.225C168.593 333.223 182.668 361.212 182.668 361.212C190.488 371.209 198.307 367.21 198.307 367.21C210.297 366.211 208.212 349.717 207.169 343.719C206.127 337.721 193.615 314.73 192.052 309.732C190.488 304.734 185.108 286.741 177.977 267.748C170.845 248.755 155.04 252.254 155.04 252.254C155.04 252.254 152.954 256.752 148.263 256.252Z" fill="#F64506" stroke="#F64506"/>
<path d="M255.12 312.182C258.747 306.164 264.446 299.143 271.182 313.185C277.917 327.226 264.446 363.834 255.12 360.825C245.794 357.816 251.493 346.282 248.903 341.267C246.312 336.253 237.504 335.25 238.022 327.226C238.54 319.202 251.493 318.199 255.12 312.182Z" fill="#F3AC89" stroke="#F3AC89"/>
<path d="M168.263 7.25209C163.571 6.75227 167.22 5.25278 164.092 6.25246C160.965 7.25215 149.496 11.2505 150.017 23.7458C150.539 36.2411 160.443 52.7349 160.443 52.7349C167.22 64.2305 181.295 79.2249 181.295 79.2249C188.593 84.223 202.668 112.212 202.668 112.212C210.488 122.209 218.307 118.21 218.307 118.21C230.297 117.211 228.212 100.717 227.169 94.719C226.127 88.7213 213.615 65.73 212.052 60.7319C210.488 55.7338 205.108 37.7405 197.977 18.7478C190.845 -0.245023 175.04 3.25359 175.04 3.25359C175.04 3.25359 172.954 7.7519 168.263 7.25209Z" fill="#F64506" stroke="#F64506"/>
<path d="M184.431 220.698C192.241 202.046 208.917 205.142 215.169 208.655C221.421 212.167 218.139 257.434 218.139 257.434C215.536 293.757 206.684 299.156 206.684 299.156C200.957 306.028 195.23 303.574 195.23 303.574C184.295 295.72 191.064 281.977 191.064 281.977C193.147 277.068 190.023 260.38 190.023 260.38C181.692 227.984 184.431 220.698 184.431 220.698Z" fill="#F17415" stroke="#F17415"/>
<path d="M12.4311 21.6982C20.2412 3.04609 36.9172 6.14185 43.169 9.65458C49.4209 13.1673 46.1392 58.4345 46.1392 58.4345C43.5358 94.757 34.6844 100.156 34.6844 100.156C28.9569 107.028 23.2295 104.574 23.2295 104.574C12.2953 96.7204 19.0641 82.9767 19.0641 82.9767C21.1468 78.0683 18.0228 61.3796 18.0228 61.3796C9.69196 28.9838 12.4311 21.6982 12.4311 21.6982Z" fill="#F17415" stroke="#F17415"/>
<path d="M324.334 93.7003C329.041 67.2322 346.824 61.7388 355.193 64.7352C363.562 67.7316 360.424 83.213 360.424 83.213C360.424 88.7063 355.716 101.691 355.716 101.691C354.67 116.173 346.302 121.667 346.302 121.667C332.18 133.153 323.811 118.171 323.811 118.171C321.719 111.679 324.334 93.7003 324.334 93.7003Z" fill="#D50D00" stroke="#D50D00"/>
<path d="M366.12 20.1816C369.747 14.1639 375.446 7.14321 382.182 21.1846C388.917 35.226 375.446 71.8339 366.12 68.825C356.794 65.8162 362.493 54.2822 359.903 49.2674C357.312 44.2526 348.504 43.2497 349.022 35.226C349.54 27.2023 362.493 26.1994 366.12 20.1816Z" fill="#F3AC89" stroke="#F3AC89"/>
<path d="M281.12 98.1816C284.747 92.1639 290.446 85.1432 297.182 99.1846C303.917 113.226 290.446 149.834 281.12 146.825C271.794 143.816 277.493 132.282 274.903 127.267C272.312 122.253 263.504 121.25 264.022 113.226C264.54 105.202 277.493 104.199 281.12 98.1816Z" fill="#F3AC89" stroke="#F3AC89"/>
<path d="M314.737 130.252C319.429 129.752 315.78 128.253 318.908 129.252C322.035 130.252 333.504 134.251 332.983 146.746C332.461 159.241 322.557 175.735 322.557 175.735C315.78 187.231 301.705 202.225 301.705 202.225C294.407 207.223 280.332 235.212 280.332 235.212C272.512 245.209 264.693 241.21 264.693 241.21C252.703 240.211 254.788 223.717 255.831 217.719C256.873 211.721 269.385 188.73 270.948 183.732C272.512 178.734 277.892 160.741 285.023 141.748C292.155 122.755 307.96 126.254 307.96 126.254C307.96 126.254 310.046 130.752 314.737 130.252Z" fill="#F64506" stroke="#F64506"/>
<path d="M358.66 141.766C352.342 131.246 344.971 137.758 342.865 140.764C340.759 143.769 339.18 164.308 339.18 164.308C334.441 179.336 316.014 203.881 316.014 203.881C307.59 212.397 312.328 231.934 312.328 231.934C323.385 274.513 331.282 240.95 333.388 231.433C335.494 221.915 358.66 165.81 358.66 165.81C363.925 149.78 358.66 141.766 358.66 141.766Z" fill="#C789F3"/>
<path d="M63.66 46.7655C57.342 36.2459 49.971 42.7581 47.865 45.7637C45.759 48.7693 44.1795 69.3075 44.1795 69.3075C39.441 84.3356 21.0136 108.881 21.0136 108.881C12.5896 117.397 17.3281 136.934 17.3281 136.934C28.3846 179.513 36.2821 145.95 38.3881 136.433C40.494 126.915 63.66 70.8103 63.66 70.8103C68.925 54.7805 63.66 46.7655 63.66 46.7655Z" fill="#C789F3"/>
<path d="M361.405 274.631C358.814 264.653 360.887 226.736 360.369 223.743C359.851 220.75 356.224 214.763 350.006 223.743C350.006 223.743 342.753 244.198 341.198 249.686C339.644 255.174 338.089 272.136 339.644 283.112C341.198 294.088 346.379 311.549 350.524 320.031C354.669 328.512 356.224 334 365.55 334C374.876 334 372.804 314.044 372.804 314.044C370.731 288.6 363.996 284.609 361.405 274.631Z" fill="#C789F3" stroke="#C789F3"/>
<path d="M349.453 316.142C356.278 306.267 362.465 302.665 373.395 314.145C384.324 325.625 385.467 331.126 382.763 346.09C369.977 367.705 348.412 363.061 345.81 349.584C343.208 336.107 342.629 326.016 349.453 316.142Z" fill="#89A9F3" stroke="#89A9F3"/>
<path d="M364.431 217.698C372.241 199.046 388.917 202.142 395.169 205.655C401.421 209.167 398.139 254.434 398.139 254.434C395.536 290.757 386.684 296.156 386.684 296.156C380.957 303.028 375.23 300.574 375.23 300.574C364.295 292.72 371.064 278.977 371.064 278.977C373.147 274.068 370.023 257.38 370.023 257.38C361.692 224.984 364.431 217.698 364.431 217.698Z" fill="#F17415" stroke="#F17415"/>
<path d="M400.733 55.9092C398.355 33.7854 389.725 35.8736 381.337 47.8949C372.95 59.9163 371.901 67.4296 371.901 67.4296C366.245 84.9007 367.505 91.6941 370.853 116.517C375.292 140.561 376.619 175.121 375.047 185.64C373.474 196.159 384.483 195.658 387.628 190.148C390.773 184.638 393.208 157.785 391.822 135.551C389.725 128.037 400.733 55.9092 400.733 55.9092Z" fill="#5C62FF"/>
<path d="M432.187 64.9251C430.09 52.9038 414.888 46.3922 407.549 63.9234C400.79 92.4814 401.258 148.574 400.21 156.087C399.161 163.601 394.967 177.125 394.967 177.125C390.774 190.148 400.734 191.651 407.024 182.134C407.024 182.134 422.751 147.071 427.469 129.54C432.187 112.009 434.284 76.9465 432.187 64.9251Z" fill="#5C62FF"/>
<path d="M400.733 55.9092C398.355 33.7854 389.725 35.8736 381.337 47.8949C372.95 59.9163 371.901 67.4296 371.901 67.4296C366.245 84.9007 367.505 91.6941 370.853 116.517C375.292 140.561 376.619 175.121 375.047 185.64C373.474 196.159 384.483 195.658 387.628 190.148C390.773 184.638 393.208 157.785 391.822 135.551C389.725 128.037 400.733 55.9092 400.733 55.9092Z" stroke="#5C62FF"/>
<path d="M432.187 64.9251C430.09 52.9038 414.888 46.3922 407.549 63.9234C400.79 92.4814 401.258 148.574 400.21 156.087C399.161 163.601 394.967 177.125 394.967 177.125C390.774 190.148 400.734 191.651 407.024 182.134C407.024 182.134 422.751 147.071 427.469 129.54C432.187 112.009 434.284 76.9465 432.187 64.9251Z" stroke="#5C62FF"/>
<path d="M440.701 36.7003C436.118 10.2322 418.803 4.73884 410.654 7.73523C402.505 10.7316 405.561 26.213 405.561 26.213C405.561 31.7063 410.145 44.6907 410.145 44.6907C411.163 59.1732 419.312 64.6666 419.312 64.6666C433.062 76.1528 441.21 61.1708 441.21 61.1708C443.247 54.6787 440.701 36.7003 440.701 36.7003Z" fill="#D50D00" stroke="#D50D00"/>
<path d="M346.701 37.7003C342.118 11.2322 324.803 5.73884 316.654 8.73523C308.505 11.7316 311.561 27.213 311.561 27.213C311.561 32.7063 316.145 45.6907 316.145 45.6907C317.163 60.1732 325.312 65.6666 325.312 65.6666C339.062 77.1528 347.21 62.1708 347.21 62.1708C349.247 55.6787 346.701 37.7003 346.701 37.7003Z" fill="#D50D00" stroke="#D50D00"/>
<path d="M411.989 276.611C412.526 263.681 420.031 271.141 420.031 271.141C420.031 271.141 426.464 277.606 427 291.53C427 291.53 427 336.287 425.392 350.709C424.273 354.714 425.392 357.174 416.278 360.655C407.165 364.136 398.587 340.266 400.195 334.795C401.804 321.865 411.989 276.611 411.989 276.611Z" fill="#A189F3" stroke="#A189F3"/>
<path d="M416.477 141.857C422.577 125.866 433.252 142.856 433.252 142.856C433.252 142.856 440.877 163.344 441.893 184.332C442.91 205.32 436.403 246.296 433.76 259.288C430.71 274.279 422.513 311.169 411.394 276.778C400.275 242.386 406.819 212.815 407.836 204.32C408.853 195.825 410.378 157.847 416.477 141.857Z" fill="#A189F3" stroke="#A189F3"/>
</svg>
