<svg width="662" height="271" viewBox="0 0 662 271" fill="none" xmlns="http://www.w3.org/2000/svg">
<g filter="url(#filter0_d_307_340)">
<path d="M140.066 158.274C131.573 158.274 125.399 156.314 121.544 152.394C117.755 148.409 115.86 142.659 115.86 135.146V103.296H130.56V135.93C130.56 139.393 131.311 142.039 132.814 143.868C134.382 145.632 136.799 146.514 140.066 146.514C143.333 146.514 145.717 145.632 147.22 143.868C148.788 142.039 149.572 139.393 149.572 135.93V83.99H164.272V135.146C164.272 142.659 162.345 148.409 158.49 152.394C154.701 156.314 148.559 158.274 140.066 158.274ZM192.375 158.274C189.043 158.274 185.907 157.882 182.967 157.098C180.027 156.379 177.283 155.334 174.735 153.962L178.655 143.28C180.092 144.129 181.824 144.881 183.849 145.534C185.874 146.187 187.867 146.514 189.827 146.514C193.486 146.514 196.393 145.142 198.549 142.398C200.705 139.589 201.783 135.407 201.783 129.854C201.783 124.627 200.705 120.642 198.549 117.898C196.393 115.154 193.028 113.782 188.455 113.782C186.299 113.782 184.078 114.109 181.791 114.762C179.504 115.35 177.61 116.101 176.107 117.016V104.962C178.132 104.047 180.419 103.329 182.967 102.806C185.515 102.283 188.226 102.022 191.101 102.022C197.112 102.022 202.012 103.133 205.801 105.354C209.59 107.575 212.367 110.777 214.131 114.958C215.895 119.074 216.777 124.039 216.777 129.854C216.777 139.131 214.654 146.187 210.407 151.022C206.16 155.857 200.15 158.274 192.375 158.274ZM247.713 157.98C242.421 157.98 238.207 156.837 235.071 154.55C231.935 152.198 229.681 148.997 228.309 144.946C226.937 140.83 226.251 136.126 226.251 130.834C226.251 125.15 226.872 120.446 228.113 116.722C229.42 112.933 231.249 109.993 233.601 107.902C235.953 105.746 238.73 104.243 241.931 103.394C245.198 102.479 248.758 102.022 252.613 102.022C258.493 102.022 263.197 102.839 266.725 104.472C270.253 106.105 272.801 108.425 274.369 111.43C276.002 114.435 276.819 117.963 276.819 122.014V157H262.119V123.19C262.119 120.119 261.368 117.8 259.865 116.232C258.428 114.599 256.01 113.782 252.613 113.782C250.326 113.782 248.301 114.272 246.537 115.252C244.838 116.167 243.499 117.833 242.519 120.25C241.604 122.667 241.147 126.13 241.147 130.638C241.147 133.709 241.441 136.42 242.029 138.772C242.617 141.124 243.564 142.953 244.871 144.26C246.243 145.567 248.072 146.22 250.359 146.22C251.078 146.22 251.764 146.187 252.417 146.122C253.136 145.991 253.756 145.861 254.279 145.73L255.651 156.706C254.606 157.163 253.332 157.49 251.829 157.686C250.392 157.882 249.02 157.98 247.713 157.98ZM311 157.98C305.186 157.98 300.645 156.804 297.378 154.452C294.177 152.035 291.923 148.703 290.616 144.456C289.375 140.144 288.754 135.146 288.754 129.462C288.754 123.125 289.375 117.963 290.616 113.978C291.858 109.993 293.72 107.053 296.202 105.158C298.75 103.263 301.854 102.316 305.512 102.316C307.799 102.316 309.792 102.773 311.49 103.688C313.254 104.537 314.659 106.138 315.704 108.49H316.096C317.011 106.073 318.514 104.439 320.604 103.59C322.695 102.741 324.949 102.316 327.366 102.316C331.874 102.316 335.239 103.525 337.46 105.942C339.747 108.359 340.89 111.887 340.89 116.526V157H326.19V119.27C326.19 117.245 325.864 115.873 325.21 115.154C324.557 114.435 323.675 114.076 322.564 114.076C321.323 114.076 320.376 114.435 319.722 115.154C319.134 115.873 318.742 117.081 318.546 118.78H312.764C312.503 116.885 312.013 115.644 311.294 115.056C310.576 114.403 309.726 114.076 308.746 114.076C307.113 114.076 305.839 115.252 304.924 117.604C304.075 119.956 303.65 123.941 303.65 129.56C303.65 133.219 303.912 136.355 304.434 138.968C305.022 141.516 306.002 143.476 307.374 144.848C308.746 146.155 310.706 146.808 313.254 146.808C314.038 146.808 314.757 146.775 315.41 146.71C316.064 146.579 316.619 146.416 317.076 146.22L318.546 156.706C317.501 157.163 316.358 157.49 315.116 157.686C313.875 157.882 312.503 157.98 311 157.98ZM373.063 158.274C369.209 158.274 365.321 157.849 361.401 157C357.547 156.151 354.117 154.942 351.111 153.374L355.227 141.712C356.534 142.431 358.102 143.182 359.931 143.966C361.761 144.75 363.753 145.403 365.909 145.926C368.065 146.449 370.254 146.71 372.475 146.71C375.089 146.71 377.049 146.351 378.355 145.632C379.727 144.848 380.413 143.672 380.413 142.104C380.413 140.928 379.956 139.981 379.041 139.262C378.192 138.478 376.918 137.759 375.219 137.106C373.521 136.387 371.495 135.636 369.143 134.852C365.681 133.611 362.708 132.271 360.225 130.834C357.743 129.397 355.815 127.633 354.443 125.542C353.137 123.451 352.483 120.838 352.483 117.702C352.483 114.109 353.398 111.169 355.227 108.882C357.057 106.595 359.637 104.897 362.969 103.786C366.301 102.61 370.189 102.022 374.631 102.022C378.29 102.022 381.589 102.316 384.529 102.904C387.469 103.492 389.756 104.243 391.389 105.158V116.722C390.279 116.199 388.809 115.677 386.979 115.154C385.215 114.631 383.288 114.207 381.197 113.88C379.172 113.488 377.212 113.292 375.317 113.292C372.639 113.292 370.613 113.651 369.241 114.37C367.869 115.089 367.183 116.101 367.183 117.408C367.183 118.453 367.641 119.335 368.555 120.054C369.535 120.773 370.94 121.459 372.769 122.112C374.599 122.7 376.787 123.451 379.335 124.366C382.733 125.542 385.607 126.849 387.959 128.286C390.311 129.723 392.075 131.487 393.251 133.578C394.493 135.669 395.113 138.249 395.113 141.32C395.113 144.26 394.427 147.037 393.055 149.65C391.749 152.198 389.495 154.289 386.293 155.922C383.092 157.49 378.682 158.274 373.063 158.274ZM414.574 157L398.992 103.296H413.79L425.648 145.142H426.236C427.281 145.142 428.261 144.848 429.176 144.26C430.091 143.672 430.875 142.888 431.528 141.908C432.835 140.079 433.815 137.923 434.468 135.44C435.121 132.892 435.448 130.377 435.448 127.894C435.448 123.517 434.599 120.152 432.9 117.8C431.267 115.448 428.98 114.272 426.04 114.272C425.452 114.272 424.897 114.305 424.374 114.37C423.917 114.435 423.492 114.566 423.1 114.762L420.356 103.492C421.859 103.035 423.263 102.773 424.57 102.708C425.942 102.577 427.053 102.512 427.902 102.512C431.365 102.512 434.37 102.969 436.918 103.884C439.466 104.799 441.655 106.171 443.484 108C445.771 110.221 447.469 112.998 448.58 116.33C449.756 119.662 450.344 123.419 450.344 127.6C450.344 132.892 449.495 137.531 447.796 141.516C446.163 145.436 444.17 148.539 441.818 150.826C439.858 152.721 437.375 154.223 434.37 155.334C431.43 156.445 427.379 157 422.218 157H414.574ZM464.778 113.096V98.788C464.778 96.3053 465.007 94.3127 465.464 92.81C465.922 91.242 466.542 89.968 467.326 88.988C468.11 88.008 468.927 87.1913 469.776 86.538L469.678 86.146H454.488L457.232 75.562H488.396V86.146C485.979 86.146 483.888 86.93 482.124 88.498C480.36 90.066 479.478 92.9407 479.478 97.122V113.096H464.778ZM478.4 157.98C475.46 157.98 472.978 157.523 470.952 156.608C468.927 155.693 467.392 154.321 466.346 152.492C465.301 150.597 464.778 148.245 464.778 145.436V103.296H479.478V143.672C479.478 144.913 479.74 145.828 480.262 146.416C480.85 147.004 481.732 147.298 482.908 147.298C483.431 147.298 483.986 147.233 484.574 147.102C485.162 146.971 485.718 146.808 486.24 146.612L487.612 156.02C486.371 156.673 484.966 157.163 483.398 157.49C481.83 157.817 480.164 157.98 478.4 157.98ZM496.205 157V103.296H510.709V123.386H511.101L527.761 103.296H543.931V103.786L510.709 140.634V157H496.205ZM529.035 157V139.262C529.035 135.799 528.022 133.317 525.997 131.814C524.037 130.246 521.162 129.462 517.373 129.462L525.997 119.27C529.917 119.27 533.184 120.054 535.797 121.622C538.41 123.19 540.37 125.313 541.677 127.992C543.049 130.605 543.735 133.611 543.735 137.008V157H529.035ZM574.612 157.98C570.626 157.98 567.262 157.229 564.518 155.726C561.839 154.158 559.781 151.839 558.344 148.768C556.972 145.697 556.286 141.941 556.286 137.498V103.296H570.986V134.95C570.986 138.543 571.704 141.157 573.142 142.79C574.579 144.423 576.67 145.24 579.414 145.24C582.876 145.24 585.555 143.933 587.45 141.32C589.344 138.641 590.292 134.525 590.292 128.972V103.296H604.992V157H593.82L592.252 148.768H591.37C590.259 151.381 588.332 153.57 585.588 155.334C582.909 157.098 579.25 157.98 574.612 157.98ZM638.653 86.244C645.448 86.244 650.903 88.106 655.019 91.83C659.201 95.4887 661.291 100.552 661.291 107.02C661.291 113.423 659.233 118.323 655.117 121.72C651.001 125.052 645.546 126.718 638.751 126.718L638.359 134.264H626.305L625.815 117.604H630.225C635.909 117.604 640.287 116.853 643.357 115.35C646.428 113.847 647.963 111.103 647.963 107.118C647.963 104.243 647.114 101.957 645.415 100.258C643.782 98.5593 641.528 97.71 638.653 97.71C635.648 97.71 633.296 98.5267 631.597 100.16C629.964 101.793 629.147 104.047 629.147 106.922H616.211C616.146 102.937 616.995 99.376 618.759 96.24C620.523 93.104 623.104 90.654 626.501 88.89C629.964 87.126 634.015 86.244 638.653 86.244ZM632.283 157.686C629.801 157.686 627.743 156.935 626.109 155.432C624.541 153.864 623.757 151.937 623.757 149.65C623.757 147.363 624.541 145.469 626.109 143.966C627.743 142.398 629.801 141.614 632.283 141.614C634.701 141.614 636.693 142.398 638.261 143.966C639.829 145.469 640.613 147.363 640.613 149.65C640.613 151.937 639.829 153.864 638.261 155.432C636.693 156.935 634.701 157.686 632.283 157.686ZM120.2 257.5C118.7 257.5 117.433 257.267 116.4 256.8C115.367 256.333 114.583 255.633 114.05 254.7C113.517 253.733 113.25 252.533 113.25 251.1V232.6C113.25 231.733 113.3 231.017 113.4 230.45C113.533 229.883 113.767 229.35 114.1 228.85C114.433 228.317 114.917 227.683 115.55 226.95C116.217 226.183 116.767 225.517 117.2 224.95C117.633 224.383 117.85 223.733 117.85 223C117.85 222.233 117.567 221.633 117 221.2C116.467 220.733 115.617 220.5 114.45 220.5C113.55 220.5 112.75 220.617 112.05 220.85C111.35 221.083 110.717 221.383 110.15 221.75V216.2C110.617 215.933 111.45 215.633 112.65 215.3C113.883 214.933 115.367 214.75 117.1 214.75C119.733 214.75 121.817 215.3 123.35 216.4C124.883 217.5 125.65 219.15 125.65 221.35C125.65 222.683 125.383 223.85 124.85 224.85C124.35 225.85 123.817 226.733 123.25 227.5C122.717 228.233 122.25 228.85 121.85 229.35C121.483 229.817 121.2 230.3 121 230.8C120.833 231.3 120.75 231.967 120.75 232.8V250.2C120.75 250.833 120.883 251.3 121.15 251.6C121.45 251.9 121.883 252.05 122.45 252.05C122.717 252.05 123 252.017 123.3 251.95C123.633 251.883 123.933 251.8 124.2 251.7L124.9 256.5C124.267 256.833 123.55 257.083 122.75 257.25C121.95 257.417 121.1 257.5 120.2 257.5ZM134.845 257V229.6H142.245V239.85H142.445L150.945 229.6H159.195V229.85L142.245 248.65V257H134.845ZM151.595 257V247.95C151.595 246.183 151.078 244.917 150.045 244.15C149.045 243.35 147.578 242.95 145.645 242.95L150.045 237.75C152.045 237.75 153.711 238.15 155.045 238.95C156.378 239.75 157.378 240.833 158.045 242.2C158.745 243.533 159.095 245.067 159.095 246.8V257H151.595ZM147.557 225.85V223.35C148.024 223.217 148.541 223.033 149.107 222.8C149.674 222.567 150.174 222.25 150.607 221.85C151.041 221.45 151.257 220.95 151.257 220.35C151.257 219.883 151.124 219.517 150.857 219.25C150.591 218.983 150.257 218.85 149.857 218.85C149.591 218.85 149.307 218.9 149.007 219C148.707 219.1 148.441 219.2 148.207 219.3L147.257 215.95C147.924 215.383 148.757 215.017 149.757 214.85C150.724 214.65 151.541 214.55 152.207 214.55C153.707 214.55 154.891 214.9 155.757 215.6C156.591 216.3 157.007 217.333 157.007 218.7C157.007 219.433 156.824 220.117 156.457 220.75C156.057 221.383 155.457 221.9 154.657 222.3L154.457 221H163.907V225.85H147.557ZM183.198 257.5C181.698 257.5 180.431 257.267 179.398 256.8C178.365 256.333 177.581 255.633 177.048 254.7C176.515 253.733 176.248 252.533 176.248 251.1V229.6H183.748V250.2C183.748 250.833 183.881 251.3 184.148 251.6C184.448 251.9 184.898 252.05 185.498 252.05C185.765 252.05 186.048 252.017 186.348 251.95C186.648 251.883 186.931 251.8 187.198 251.7L187.898 256.5C187.265 256.833 186.548 257.083 185.748 257.25C184.948 257.417 184.098 257.5 183.198 257.5ZM206.744 257.65C204.777 257.65 202.794 257.433 200.794 257C198.827 256.567 197.077 255.95 195.544 255.15L197.644 249.2C198.31 249.567 199.11 249.95 200.044 250.35C200.977 250.75 201.994 251.083 203.094 251.35C204.194 251.617 205.31 251.75 206.444 251.75C207.777 251.75 208.777 251.567 209.444 251.2C210.144 250.8 210.494 250.2 210.494 249.4C210.494 248.8 210.26 248.317 209.794 247.95C209.36 247.55 208.71 247.183 207.844 246.85C206.977 246.483 205.944 246.1 204.744 245.7C202.977 245.067 201.46 244.383 200.194 243.65C198.927 242.917 197.944 242.017 197.244 240.95C196.577 239.883 196.244 238.55 196.244 236.95C196.244 235.117 196.71 233.617 197.644 232.45C198.577 231.283 199.894 230.417 201.594 229.85C203.294 229.25 205.277 228.95 207.544 228.95C209.41 228.95 211.094 229.1 212.594 229.4C214.094 229.7 215.26 230.083 216.094 230.55V236.45C215.527 236.183 214.777 235.917 213.844 235.65C212.944 235.383 211.96 235.167 210.894 235C209.86 234.8 208.86 234.7 207.894 234.7C206.527 234.7 205.494 234.883 204.794 235.25C204.094 235.617 203.744 236.133 203.744 236.8C203.744 237.333 203.977 237.783 204.444 238.15C204.944 238.517 205.66 238.867 206.594 239.2C207.527 239.5 208.644 239.883 209.944 240.35C211.677 240.95 213.144 241.617 214.344 242.35C215.544 243.083 216.444 243.983 217.044 245.05C217.677 246.117 217.994 247.433 217.994 249C217.994 250.5 217.644 251.917 216.944 253.25C216.277 254.55 215.127 255.617 213.494 256.45C211.86 257.25 209.61 257.65 206.744 257.65ZM235.473 257V238.9C235.473 237.5 235.139 236.483 234.473 235.85C233.839 235.217 232.789 234.9 231.323 234.9C230.223 234.9 229.206 235.05 228.273 235.35C227.373 235.65 226.523 236.017 225.723 236.45V230.45C226.456 230.117 227.489 229.783 228.823 229.45C230.156 229.117 231.723 228.95 233.523 228.95C235.356 228.95 236.973 229.217 238.373 229.75C239.806 230.283 240.923 231.183 241.723 232.45C242.556 233.683 242.973 235.383 242.973 237.55V257H235.473ZM266.601 257.65C262.801 257.65 259.918 256.817 257.951 255.15C256.018 253.45 255.051 251.017 255.051 247.85V245.9C255.051 244.533 255.201 243.4 255.501 242.5C255.835 241.6 256.268 240.783 256.801 240.05C257.335 239.317 257.768 238.667 258.101 238.1C258.468 237.5 258.651 236.883 258.651 236.25C258.651 235.65 258.501 235.233 258.201 235C257.935 234.733 257.568 234.6 257.101 234.6C256.768 234.6 256.418 234.65 256.051 234.75C255.718 234.85 255.335 235 254.901 235.2L253.701 230.5C254.635 230 255.635 229.667 256.701 229.5C257.801 229.3 258.768 229.2 259.601 229.2C261.068 229.2 262.235 229.433 263.101 229.9C264.001 230.367 264.651 231.033 265.051 231.9C265.451 232.767 265.651 233.8 265.651 235C265.651 236.033 265.501 236.95 265.201 237.75C264.901 238.517 264.518 239.317 264.051 240.15C263.618 240.917 263.235 241.633 262.901 242.3C262.601 242.967 262.451 243.933 262.451 245.2V247.1C262.451 248.2 262.601 249.1 262.901 249.8C263.235 250.5 263.718 251.017 264.351 251.35C264.985 251.65 265.735 251.8 266.601 251.8C268.035 251.8 269.051 251.417 269.651 250.65C270.285 249.85 270.601 248.783 270.601 247.45V242.6C270.601 241.6 270.368 240.817 269.901 240.25C269.468 239.65 268.718 239.35 267.651 239.35H267.401V235.4H267.701C268.735 235.4 269.501 235.117 270.001 234.55C270.501 233.983 270.818 233.267 270.951 232.4C271.118 231.5 271.201 230.567 271.201 229.6H278.651C278.651 231.633 278.385 233.317 277.851 234.65C277.318 235.983 276.385 236.883 275.051 237.35V237.55C275.851 237.783 276.468 238.15 276.901 238.65C277.335 239.117 277.635 239.683 277.801 240.35C277.968 241.017 278.051 241.75 278.051 242.55V247.65C278.051 250.95 277.085 253.45 275.151 255.15C273.218 256.817 270.368 257.65 266.601 257.65ZM276.502 225.8V214.45H283.402V225.8H276.502ZM302.183 257.65C300.483 257.65 298.883 257.45 297.383 257.05C295.883 256.683 294.483 256.15 293.183 255.45L295.183 250C295.916 250.433 296.799 250.817 297.833 251.15C298.866 251.483 299.883 251.65 300.883 251.65C302.749 251.65 304.233 250.95 305.333 249.55C306.433 248.117 306.983 245.983 306.983 243.15C306.983 240.483 306.433 238.45 305.333 237.05C304.233 235.65 302.516 234.95 300.183 234.95C299.083 234.95 297.949 235.117 296.783 235.45C295.616 235.75 294.649 236.133 293.883 236.6V230.45C294.916 229.983 296.083 229.617 297.383 229.35C298.683 229.083 300.066 228.95 301.533 228.95C304.599 228.95 307.099 229.517 309.033 230.65C310.966 231.783 312.383 233.417 313.283 235.55C314.183 237.65 314.633 240.183 314.633 243.15C314.633 247.883 313.549 251.483 311.383 253.95C309.216 256.417 306.149 257.65 302.183 257.65ZM337.166 257.65C334.166 257.65 331.766 257.3 329.966 256.6C328.166 255.867 326.85 254.85 326.016 253.55C325.216 252.25 324.816 250.75 324.816 249.05C324.816 247.583 325.033 246.4 325.466 245.5C325.933 244.6 326.516 243.917 327.216 243.45C327.95 242.95 328.683 242.617 329.416 242.45V242.15C328.65 241.883 327.916 241.517 327.216 241.05C326.516 240.583 325.933 239.95 325.466 239.15C325.033 238.35 324.816 237.35 324.816 236.15C324.816 234.917 325.1 233.767 325.666 232.7C326.266 231.633 327.216 230.783 328.516 230.15C329.816 229.483 331.533 229.15 333.666 229.15C334.7 229.15 335.7 229.233 336.666 229.4C337.633 229.533 338.383 229.733 338.916 230L337.766 235.05C337.5 234.983 337.133 234.917 336.666 234.85C336.233 234.75 335.783 234.7 335.316 234.7C334.283 234.7 333.516 234.95 333.016 235.45C332.516 235.917 332.266 236.533 332.266 237.3C332.266 238.1 332.483 238.717 332.916 239.15C333.35 239.583 333.9 239.883 334.566 240.05C335.266 240.217 335.983 240.3 336.716 240.3H337.766V244.95H336.716C335.283 244.95 334.2 245.2 333.466 245.7C332.766 246.2 332.416 247.017 332.416 248.15C332.416 248.75 332.55 249.35 332.816 249.95C333.116 250.517 333.616 251 334.316 251.4C335.016 251.767 336.016 251.95 337.316 251.95C338.55 251.95 339.516 251.767 340.216 251.4C340.916 251.033 341.416 250.55 341.716 249.95C342.016 249.317 342.166 248.617 342.166 247.85V229.6H349.666V247.6C349.666 251.033 348.65 253.567 346.616 255.2C344.616 256.833 341.466 257.65 337.166 257.65ZM369.37 257.5C367.87 257.5 366.603 257.267 365.57 256.8C364.537 256.333 363.753 255.633 363.22 254.7C362.687 253.733 362.42 252.533 362.42 251.1V229.6H369.92V250.2C369.92 250.833 370.053 251.3 370.32 251.6C370.62 251.9 371.07 252.05 371.67 252.05C371.937 252.05 372.22 252.017 372.52 251.95C372.82 251.883 373.103 251.8 373.37 251.7L374.07 256.5C373.437 256.833 372.72 257.083 371.92 257.25C371.12 257.417 370.27 257.5 369.37 257.5ZM384.42 257.5C382.92 257.5 381.653 257.267 380.62 256.8C379.587 256.333 378.803 255.633 378.27 254.7C377.737 253.733 377.47 252.533 377.47 251.1V229.6H384.97V250.2C384.97 250.833 385.103 251.3 385.37 251.6C385.67 251.9 386.12 252.05 386.72 252.05C386.987 252.05 387.27 252.017 387.57 251.95C387.87 251.883 388.153 251.8 388.42 251.7L389.12 256.5C388.487 256.833 387.77 257.083 386.97 257.25C386.17 257.417 385.32 257.5 384.42 257.5ZM407.807 257.5C405.774 257.5 404.057 257.117 402.657 256.35C401.29 255.55 400.24 254.367 399.507 252.8C398.807 251.233 398.457 249.317 398.457 247.05V229.6H405.957V245.75C405.957 247.583 406.324 248.917 407.057 249.75C407.79 250.583 408.857 251 410.257 251C412.024 251 413.39 250.333 414.357 249C415.324 247.633 415.807 245.533 415.807 242.7V229.6H423.307V257H417.607L416.807 252.8H416.357C415.79 254.133 414.807 255.25 413.407 256.15C412.04 257.05 410.174 257.5 407.807 257.5ZM440.481 240.85C438.948 240.85 437.731 240.617 436.831 240.15C435.931 239.683 435.281 239.067 434.881 238.3C434.481 237.5 434.281 236.667 434.281 235.8C434.281 235.233 434.365 234.65 434.531 234.05C434.698 233.417 434.948 232.8 435.281 232.2L440.731 232.9C440.665 233.133 440.598 233.383 440.531 233.65C440.498 233.917 440.481 234.2 440.481 234.5C440.481 234.933 440.615 235.283 440.881 235.55C441.148 235.783 441.615 235.9 442.281 235.9H447.931V240.85H440.481ZM440.481 254.85C438.948 254.85 437.731 254.617 436.831 254.15C435.931 253.683 435.281 253.067 434.881 252.3C434.481 251.5 434.281 250.667 434.281 249.8C434.281 249.233 434.365 248.65 434.531 248.05C434.698 247.417 434.948 246.8 435.281 246.2L440.731 246.9C440.665 247.133 440.598 247.383 440.531 247.65C440.498 247.917 440.481 248.2 440.481 248.5C440.481 248.933 440.615 249.283 440.881 249.55C441.148 249.783 441.615 249.9 442.281 249.9H447.931V254.85H440.481ZM468.051 257.5C466.018 257.5 464.301 257.117 462.901 256.35C461.535 255.55 460.485 254.367 459.751 252.8C459.051 251.233 458.701 249.317 458.701 247.05V229.6H466.201V245.75C466.201 247.583 466.568 248.917 467.301 249.75C468.035 250.583 469.101 251 470.501 251C472.268 251 473.635 250.333 474.601 249C475.568 247.633 476.051 245.533 476.051 242.7V229.6H483.551V257H477.851L477.051 252.8H476.601C476.035 254.133 475.051 255.25 473.651 256.15C472.285 257.05 470.418 257.5 468.051 257.5ZM483.475 226.9C481.575 226.9 480.059 226.467 478.925 225.6C477.792 224.733 477.225 223.517 477.225 221.95C477.225 220.383 477.792 219.167 478.925 218.3C480.059 217.433 481.575 217 483.475 217C485.375 217 486.909 217.433 488.075 218.3C489.209 219.167 489.775 220.383 489.775 221.95C489.775 223.517 489.209 224.733 488.075 225.6C486.909 226.467 485.375 226.9 483.475 226.9ZM483.475 224C484.209 224 484.775 223.817 485.175 223.45C485.575 223.083 485.775 222.583 485.775 221.95C485.775 221.317 485.575 220.817 485.175 220.45C484.775 220.083 484.209 219.9 483.475 219.9C482.775 219.9 482.225 220.083 481.825 220.45C481.425 220.817 481.225 221.317 481.225 221.95C481.225 222.583 481.425 223.083 481.825 223.45C482.225 223.817 482.775 224 483.475 224ZM508.275 257V238.9C508.275 237.5 507.942 236.483 507.275 235.85C506.642 235.217 505.592 234.9 504.125 234.9C503.025 234.9 502.009 235.05 501.075 235.35C500.175 235.65 499.325 236.017 498.525 236.45V230.45C499.259 230.117 500.292 229.783 501.625 229.45C502.959 229.117 504.525 228.95 506.325 228.95C508.159 228.95 509.775 229.217 511.175 229.75C512.609 230.283 513.725 231.183 514.525 232.45C515.359 233.683 515.775 235.383 515.775 237.55V257H508.275ZM527.754 257V240.75C527.754 236.917 528.771 234 530.804 232C532.837 229.967 536.054 228.95 540.454 228.95C544.887 228.95 548.087 229.967 550.054 232C552.054 234 553.054 236.917 553.054 240.75V257H545.604V240.65C545.604 238.883 545.187 237.5 544.354 236.5C543.554 235.467 542.221 234.95 540.354 234.95C538.521 234.95 537.187 235.467 536.354 236.5C535.554 237.5 535.154 238.883 535.154 240.65V245L535.304 245.05C535.937 243.75 536.687 242.9 537.554 242.5C538.454 242.067 539.671 241.85 541.204 241.85H542.354V247.45H541.204C539.537 247.45 538.271 247.733 537.404 248.3C536.537 248.867 535.937 249.617 535.604 250.55C535.304 251.45 535.154 252.467 535.154 253.6V257H527.754ZM551.668 270.05V265.6C551.668 264.767 551.301 264.35 550.568 264.35C550.401 264.35 550.234 264.367 550.068 264.4C549.901 264.433 549.734 264.483 549.568 264.55L549.218 260.95C549.684 260.783 550.334 260.617 551.168 260.45C551.968 260.283 552.784 260.2 553.618 260.2C555.251 260.2 556.401 260.517 557.068 261.15C557.734 261.817 558.068 262.717 558.068 263.85V270.05H551.668ZM576.878 257.5C575.445 257.5 574.195 257.267 573.128 256.8C572.095 256.333 571.278 255.633 570.678 254.7C570.111 253.733 569.828 252.533 569.828 251.1V247.85C569.828 245.883 570.261 244.433 571.128 243.5C571.995 242.567 573.195 241.867 574.728 241.4L574.778 241.2L569.328 239.25V237.95C569.328 236.25 569.795 234.733 570.728 233.4C571.695 232.033 573.095 230.95 574.928 230.15C576.761 229.35 578.995 228.95 581.628 228.95C584.095 228.95 586.211 229.333 587.978 230.1C589.778 230.833 591.161 231.95 592.128 233.45C593.095 234.917 593.578 236.767 593.578 239V246.5C593.578 248.1 593.928 249.25 594.628 249.95C595.328 250.65 596.195 251 597.228 251C598.195 251 599.028 250.733 599.728 250.2C600.428 249.633 600.978 248.867 601.378 247.9C601.778 246.9 601.978 245.733 601.978 244.4V229.6H609.478V257H603.678L602.828 252.7H602.428C601.828 254.1 600.845 255.25 599.478 256.15C598.145 257.05 596.478 257.5 594.478 257.5C591.745 257.5 589.678 256.783 588.278 255.35C586.911 253.883 586.228 251.583 586.228 248.45V239.55C586.228 238.383 586.011 237.467 585.578 236.8C585.178 236.1 584.628 235.6 583.928 235.3C583.228 235 582.428 234.85 581.528 234.85C580.261 234.85 579.211 235.133 578.378 235.7C577.545 236.233 577.095 237.05 577.028 238.15L581.378 240.25L580.878 243.5C579.645 243.533 578.711 243.833 578.078 244.4C577.445 244.933 577.128 245.883 577.128 247.25V250.3C577.128 251.033 577.278 251.567 577.578 251.9C577.911 252.2 578.428 252.35 579.128 252.35C579.428 252.35 579.728 252.333 580.028 252.3C580.361 252.233 580.645 252.15 580.878 252.05L581.578 256.5C580.945 256.833 580.228 257.083 579.428 257.25C578.628 257.417 577.778 257.5 576.878 257.5Z" fill="#353535"/>
</g>
<defs>
<filter id="filter0_d_307_340" x="0.149902" y="0.562012" width="661.141" height="269.488" filterUnits="userSpaceOnUse" color-interpolation-filters="sRGB">
<feFlood flood-opacity="0" result="BackgroundImageFix"/>
<feColorMatrix in="SourceAlpha" type="matrix" values="0 0 0 0 0 0 0 0 0 0 0 0 0 0 0 0 0 0 127 0" result="hardAlpha"/>
<feOffset dx="-100" dy="-65"/>
<feGaussianBlur stdDeviation="5"/>
<feComposite in2="hardAlpha" operator="out"/>
<feColorMatrix type="matrix" values="0 0 0 0 0 0 0 0 0 0 0 0 0 0 0 0 0 0 0.25 0"/>
<feBlend mode="normal" in2="BackgroundImageFix" result="effect1_dropShadow_307_340"/>
<feBlend mode="normal" in="SourceGraphic" in2="effect1_dropShadow_307_340" result="shape"/>
</filter>
</defs>
</svg>
