<svg width="50" height="50" viewBox="0 0 50 50" fill="none" xmlns="http://www.w3.org/2000/svg">
<path d="M17.9984 11.0654C16.1589 11.0654 14.3947 11.7962 13.0939 13.097C11.7932 14.3977 11.0624 16.1619 11.0624 18.0014C11.0624 19.841 11.7932 21.6052 13.0939 22.9059C14.3947 24.2067 16.1589 24.9374 17.9984 24.9374C19.838 24.9374 21.6022 24.2067 22.9029 22.9059C24.2037 21.6052 24.9344 19.841 24.9344 18.0014C24.9344 16.1619 24.2037 14.3977 22.9029 13.097C21.6022 11.7962 19.838 11.0654 17.9984 11.0654ZM17.9984 22.5059C16.8034 22.5059 15.6572 22.0312 14.8122 21.1862C13.9672 20.3411 13.4924 19.195 13.4924 17.9999C13.4924 16.8049 13.9672 15.6588 14.8122 14.8137C15.6572 13.9687 16.8034 13.4939 17.9984 13.4939C19.1935 13.4939 20.3396 13.9687 21.1847 14.8137C22.0297 15.6588 22.5044 16.8049 22.5044 17.9999C22.5044 19.195 22.0297 20.3411 21.1847 21.1862C20.3396 22.0312 19.1935 22.5059 17.9984 22.5059Z" fill="#FF6130"/>
<path d="M25.2089 12.4274C26.102 12.4274 26.8259 11.7035 26.8259 10.8104C26.8259 9.9174 26.102 9.19345 25.2089 9.19345C24.3159 9.19345 23.5919 9.9174 23.5919 10.8104C23.5919 11.7035 24.3159 12.4274 25.2089 12.4274Z" fill="#FF6130"/>
<path d="M30.7994 9.16645C30.4522 8.26972 29.9215 7.45537 29.2414 6.77553C28.5613 6.0957 27.7468 5.56535 26.8499 5.21845C25.8004 4.82448 24.6917 4.61146 23.5709 4.58845C22.1264 4.52545 21.6689 4.50745 18.0059 4.50745C14.3429 4.50745 13.8734 4.50745 12.4409 4.58845C11.321 4.61028 10.2131 4.82335 9.16493 5.21845C8.26783 5.56495 7.45308 6.09515 6.77293 6.77504C6.09279 7.45493 5.56227 8.26948 5.21543 9.16645C4.82139 10.2159 4.60885 11.3247 4.58693 12.4454C4.52243 13.8884 4.50293 14.3459 4.50293 18.0104C4.50293 21.6734 4.50293 22.1399 4.58693 23.5754C4.60943 24.6974 4.82093 25.8044 5.21543 26.8559C5.56325 27.7526 6.09427 28.5668 6.77458 29.2466C7.45489 29.9264 8.26953 30.4568 9.16643 30.8039C10.2126 31.2137 11.321 31.442 12.4439 31.4789C13.8884 31.5419 14.3459 31.5614 18.0089 31.5614C21.6719 31.5614 22.1414 31.5614 23.5739 31.4789C24.6946 31.4562 25.8033 31.2437 26.8529 30.8504C27.7496 30.5027 28.5639 29.9719 29.2439 29.2919C29.9239 28.6119 30.4547 27.7976 30.8024 26.9009C31.1969 25.8509 31.4084 24.7439 31.4309 23.6219C31.4954 22.1789 31.5149 21.7214 31.5149 18.0569C31.5149 14.3924 31.5149 13.9274 31.4309 12.4919C31.4135 11.3554 31.1998 10.2303 30.7994 9.16645ZM28.9724 23.4644C28.9628 24.3289 28.805 25.1853 28.5059 25.9964C28.2807 26.5798 27.9358 27.1094 27.4935 27.5515C27.0513 27.9935 26.5214 28.338 25.9379 28.5629C25.1358 28.8606 24.2885 29.0184 23.4329 29.0294C22.0079 29.0954 21.6059 29.1119 17.9519 29.1119C14.2949 29.1119 13.9214 29.1119 12.4694 29.0294C11.6143 29.019 10.7674 28.8612 9.96593 28.5629C9.38046 28.3394 8.84843 27.9955 8.40426 27.5534C7.9601 27.1113 7.61368 26.5809 7.38743 25.9964C7.0926 25.194 6.9349 24.3477 6.92093 23.4929C6.85643 22.0679 6.84143 21.6659 6.84143 18.0119C6.84143 14.3564 6.84143 13.9829 6.92093 12.5294C6.93063 11.6655 7.08841 10.8096 7.38743 9.99895C7.84493 8.81545 8.78243 7.88395 9.96593 7.43095C10.7678 7.13416 11.6145 6.97639 12.4694 6.96445C13.8959 6.89995 14.2964 6.88195 17.9519 6.88195C21.6074 6.88195 21.9824 6.88195 23.4329 6.96445C24.2885 6.97474 25.136 7.13255 25.9379 7.43095C26.5213 7.65636 27.0511 8.00125 27.4934 8.44349C27.9356 8.88573 28.2805 9.41555 28.5059 9.99895C28.8008 10.8014 28.9585 11.6477 28.9724 12.5024C29.0369 13.9289 29.0534 14.3294 29.0534 17.9849C29.0534 21.6389 29.0534 22.0319 28.9889 23.4659H28.9724V23.4644Z" fill="#FF6130"/>
</svg>
