<svg width="3135" height="1374" viewBox="0 0 3135 1374" fill="none" xmlns="http://www.w3.org/2000/svg">
<g filter="url(#filter0_f_290_711)">
<path d="M500 524.306C500 511.051 510.745 500.306 524 500.306H2611C2624.25 500.306 2635 511.051 2635 524.306V849.334C2635 862.589 2624.25 873.334 2611 873.334H524C510.745 873.334 500 862.589 500 849.334V524.306Z" fill="#D3E4FF"/>
<path d="M500 524.306C500 511.051 510.745 500.306 524 500.306H2611C2624.25 500.306 2635 511.051 2635 524.306V849.334C2635 862.589 2624.25 873.334 2611 873.334H524C510.745 873.334 500 862.589 500 849.334V524.306Z" fill="url(#paint0_linear_290_711)" fill-opacity="0.85"/>
<path d="M500 524.306C500 511.051 510.745 500.306 524 500.306H2611C2624.25 500.306 2635 511.051 2635 524.306V849.334C2635 862.589 2624.25 873.334 2611 873.334H524C510.745 873.334 500 862.589 500 849.334V524.306Z" fill="url(#paint1_linear_290_711)" fill-opacity="0.91"/>
<path d="M500 524.306C500 511.051 510.745 500.306 524 500.306H2611C2624.25 500.306 2635 511.051 2635 524.306V849.334C2635 862.589 2624.25 873.334 2611 873.334H524C510.745 873.334 500 862.589 500 849.334V524.306Z" fill="url(#paint2_linear_290_711)" style="mix-blend-mode:darken"/>
<path d="M500 524.306C500 511.051 510.745 500.306 524 500.306H2611C2624.25 500.306 2635 511.051 2635 524.306V849.334C2635 862.589 2624.25 873.334 2611 873.334H524C510.745 873.334 500 862.589 500 849.334V524.306Z" fill="url(#paint3_linear_290_711)" fill-opacity="0.8"/>
</g>
<g filter="url(#filter1_f_290_711)">
<path d="M985 524.306C985 511.051 995.745 500.306 1009 500.306H2121C2134.25 500.306 2145 511.051 2145 524.306V849.334C2145 862.589 2134.25 873.334 2121 873.334H1009C995.745 873.334 985 862.589 985 849.334V524.306Z" fill="#D3E4FF"/>
<path d="M985 524.306C985 511.051 995.745 500.306 1009 500.306H2121C2134.25 500.306 2145 511.051 2145 524.306V849.334C2145 862.589 2134.25 873.334 2121 873.334H1009C995.745 873.334 985 862.589 985 849.334V524.306Z" fill="url(#paint4_linear_290_711)" fill-opacity="0.85"/>
<path d="M985 524.306C985 511.051 995.745 500.306 1009 500.306H2121C2134.25 500.306 2145 511.051 2145 524.306V849.334C2145 862.589 2134.25 873.334 2121 873.334H1009C995.745 873.334 985 862.589 985 849.334V524.306Z" fill="url(#paint5_linear_290_711)" fill-opacity="0.91"/>
<path d="M985 524.306C985 511.051 995.745 500.306 1009 500.306H2121C2134.25 500.306 2145 511.051 2145 524.306V849.334C2145 862.589 2134.25 873.334 2121 873.334H1009C995.745 873.334 985 862.589 985 849.334V524.306Z" fill="url(#paint6_linear_290_711)" style="mix-blend-mode:darken"/>
<path d="M985 524.306C985 511.051 995.745 500.306 1009 500.306H2121C2134.25 500.306 2145 511.051 2145 524.306V849.334C2145 862.589 2134.25 873.334 2121 873.334H1009C995.745 873.334 985 862.589 985 849.334V524.306Z" fill="url(#paint7_linear_290_711)" fill-opacity="0.8"/>
</g>
<defs>
<filter id="filter0_f_290_711" x="0" y="0.305786" width="3135" height="1373.03" filterUnits="userSpaceOnUse" color-interpolation-filters="sRGB">
<feFlood flood-opacity="0" result="BackgroundImageFix"/>
<feBlend mode="normal" in="SourceGraphic" in2="BackgroundImageFix" result="shape"/>
<feGaussianBlur stdDeviation="250" result="effect1_foregroundBlur_290_711"/>
</filter>
<filter id="filter1_f_290_711" x="485" y="0.305786" width="2160" height="1373.03" filterUnits="userSpaceOnUse" color-interpolation-filters="sRGB">
<feFlood flood-opacity="0" result="BackgroundImageFix"/>
<feBlend mode="normal" in="SourceGraphic" in2="BackgroundImageFix" result="shape"/>
<feGaussianBlur stdDeviation="250" result="effect1_foregroundBlur_290_711"/>
</filter>
<linearGradient id="paint0_linear_290_711" x1="1255.13" y1="509.049" x2="1327.58" y2="1031.74" gradientUnits="userSpaceOnUse">
<stop stop-color="#4EADEB"/>
<stop offset="1" stop-color="#4EADEB" stop-opacity="0"/>
</linearGradient>
<linearGradient id="paint1_linear_290_711" x1="2198.72" y1="767.448" x2="2092.71" y2="401.775" gradientUnits="userSpaceOnUse">
<stop stop-color="#FCB25B"/>
<stop offset="1" stop-color="#FCB25B" stop-opacity="0"/>
</linearGradient>
<linearGradient id="paint2_linear_290_711" x1="597.469" y1="608.134" x2="688.789" y2="265.986" gradientUnits="userSpaceOnUse">
<stop stop-color="#B95BE6"/>
<stop offset="1" stop-color="#B95BE6" stop-opacity="0"/>
</linearGradient>
<linearGradient id="paint3_linear_290_711" x1="1074.03" y1="816.991" x2="1088.23" y2="654.836" gradientUnits="userSpaceOnUse">
<stop stop-color="#F97C59"/>
<stop offset="1" stop-color="#F97C59" stop-opacity="0"/>
</linearGradient>
<linearGradient id="paint4_linear_290_711" x1="1395.28" y1="509.049" x2="1522.88" y2="1009.23" gradientUnits="userSpaceOnUse">
<stop stop-color="#4EADEB"/>
<stop offset="1" stop-color="#4EADEB" stop-opacity="0"/>
</linearGradient>
<linearGradient id="paint5_linear_290_711" x1="1907.96" y1="767.448" x2="1743.32" y2="458.89" gradientUnits="userSpaceOnUse">
<stop stop-color="#FCB25B"/>
<stop offset="1" stop-color="#FCB25B" stop-opacity="0"/>
</linearGradient>
<linearGradient id="paint6_linear_290_711" x1="1037.96" y1="608.134" x2="1183" y2="312.864" gradientUnits="userSpaceOnUse">
<stop stop-color="#B95BE6"/>
<stop offset="1" stop-color="#B95BE6" stop-opacity="0"/>
</linearGradient>
<linearGradient id="paint7_linear_290_711" x1="1296.89" y1="816.991" x2="1322.55" y2="657.73" gradientUnits="userSpaceOnUse">
<stop stop-color="#F97C59"/>
<stop offset="1" stop-color="#F97C59" stop-opacity="0"/>
</linearGradient>
</defs>
</svg>
